<svg width="400" height="400" viewBox="0 0 400 400" fill="none" xmlns="http://www.w3.org/2000/svg">
<g opacity="0.5">
<path fill-rule="evenodd" clip-rule="evenodd" d="M42.41 61.3631H56.396V47.3771H42.41V61.3631ZM39.21 64.5631H59.596V44.1771H39.21V64.5631Z" fill="#008755"/>
<path fill-rule="evenodd" clip-rule="evenodd" d="M10.1933 189.807H0V193.007H6.99333V206.993H0V210.193H10.1933V189.807Z" fill="#008755"/>
<path fill-rule="evenodd" clip-rule="evenodd" d="M106.805 345.114H120.791V331.128H106.805V345.114ZM103.605 348.314H123.991V327.928H103.605V348.314Z" fill="#008755"/>
<path fill-rule="evenodd" clip-rule="evenodd" d="M357.771 10.1933V0H354.571V6.99333H340.585V0H337.385V10.1933H357.771Z" fill="#008755"/>
<path fill-rule="evenodd" clip-rule="evenodd" d="M85.0682 163.176C80.1286 163.176 76.1102 159.158 76.1102 154.218C76.1102 149.279 80.1286 145.26 85.0682 145.26C90.0078 145.26 94.0262 149.279 94.0262 154.218C94.0262 159.158 90.0078 163.176 85.0682 163.176ZM85.0682 142.06C78.3642 142.06 72.9102 147.515 72.9102 154.218C72.9102 160.922 78.3642 166.376 85.0682 166.376C91.7722 166.376 97.2262 160.922 97.2262 154.218C97.2262 147.515 91.7722 142.06 85.0682 142.06ZM311.144 237.859C306.205 237.859 302.187 233.841 302.187 228.901C302.187 223.962 306.205 219.943 311.144 219.943C316.084 219.943 320.103 223.962 320.103 228.901C320.103 233.841 316.084 237.859 311.144 237.859ZM311.144 216.743C304.441 216.743 298.987 222.197 298.987 228.901C298.987 235.605 304.441 241.059 311.144 241.059C317.848 241.059 323.303 235.605 323.303 228.901C323.303 222.197 317.848 216.743 311.144 216.743Z" fill="#008755"/>
<path fill-rule="evenodd" clip-rule="evenodd" d="M231.553 113.455C226.614 113.455 222.595 109.437 222.595 104.497C222.595 99.5579 226.614 95.5395 231.553 95.5395C236.492 95.5395 240.511 99.5579 240.511 104.497C240.511 109.437 236.492 113.455 231.553 113.455ZM231.553 92.3395C224.849 92.3395 219.395 97.7935 219.395 104.497C219.395 111.201 224.849 116.655 231.553 116.655C238.257 116.655 243.711 111.201 243.711 104.497C243.711 97.7935 238.257 92.3395 231.553 92.3395Z" fill="#008755"/>
<path fill-rule="evenodd" clip-rule="evenodd" d="M238.769 7.58267L239.405 26.228L220.988 25.6307L221.584 44.316L203.206 43.72L203.322 64.5627L206.522 64.5453L206.425 47.0253L224.89 47.6253L224.294 28.9387L242.72 29.5373L242.084 10.892L260.501 11.4907L260.134 0H256.933L257.193 8.18133L238.769 7.58267Z" fill="#008755"/>
<path fill-rule="evenodd" clip-rule="evenodd" d="M19.8907 292.929L32.0813 306.759L45.2253 293.519L57.4093 307.343L70.6573 294.056L82.7547 306.721L85.068 304.511L70.7067 289.475L57.5533 302.667L45.364 288.837L32.22 302.076L20.0347 288.253L6.83333 301.492L0 293.739V298.579L6.68933 306.167L19.8907 292.929Z" fill="#008755"/>
<path fill-rule="evenodd" clip-rule="evenodd" d="M345.641 127.822C343.132 125.667 340.289 123.224 336.82 125.188C333.148 127.268 333.524 131.668 333.856 135.55C334.205 139.632 334.273 142.192 332.277 143.323C330.389 144.392 328.435 143.033 325.443 140.666C322.479 138.32 318.79 135.4 314.724 137.704C310.672 139.999 311.175 144.72 311.579 148.513C311.988 152.347 312.101 154.751 310.23 155.81C308.235 156.94 305.936 155.45 302.656 153.046C299.587 150.796 296.111 148.247 292.677 150.191C289.221 152.149 289.441 156.663 289.635 160.645C289.801 164.064 289.959 167.292 288.133 168.326C286.595 169.198 284.712 167.916 281.793 165.703C278.65 163.32 274.739 160.353 270.579 162.708C266.698 164.906 267.246 168.988 267.729 172.588C268.295 176.807 268.424 179.491 265.431 181.186L267.008 183.97C272.099 181.086 271.435 176.138 270.901 172.162C270.384 168.312 270.347 166.518 272.157 165.492C274.324 164.264 276.513 165.716 279.86 168.253C282.845 170.517 286.229 173.083 289.711 171.111C293.251 169.106 293.028 164.528 292.831 160.49C292.667 157.133 292.513 153.962 294.255 152.976C295.772 152.115 297.818 153.467 300.763 155.626C303.926 157.945 307.862 160.83 311.807 158.595C315.641 156.424 315.173 152.041 314.761 148.174C314.335 144.176 314.226 141.663 316.301 140.488C318.343 139.33 320.368 140.73 323.457 143.175C326.352 145.466 329.955 148.317 333.854 146.107C337.78 143.883 337.389 139.311 337.044 135.277C336.713 131.396 336.638 128.968 338.397 127.972C339.771 127.194 340.964 128.023 343.557 130.25C346.624 132.885 350.824 136.494 356.857 133.077L355.28 130.293C351.48 132.445 349.104 130.796 345.641 127.822ZM221.951 257.578C218.781 254.737 216.941 252.779 218.117 249.547L215.109 248.453C213.109 253.952 216.827 257.283 219.814 259.961C222.707 262.554 223.899 263.896 223.19 265.85C222.338 268.192 219.73 268.508 215.538 268.751C211.797 268.968 207.557 269.213 206.19 272.972C204.799 276.796 207.941 280.133 210.712 283.076C213.016 285.524 215.191 287.836 214.507 289.716C213.911 291.357 211.478 291.656 207.836 291.926C203.925 292.216 199.059 292.576 197.508 296.838C196.003 300.976 199.203 304.008 202.027 306.681C204.947 309.446 206.66 311.286 205.846 313.527C205.043 315.735 202.594 315.983 198.658 316.13C194.969 316.266 190.378 316.437 188.847 320.649C187.304 324.888 190.57 328.112 193.451 330.957C196.224 333.694 197.857 335.494 197.165 337.392C196.625 338.876 195.179 339.02 191.761 339.008C187.717 338.996 182.178 338.978 179.809 345.493L182.816 346.587C184.309 342.482 187.188 342.194 191.751 342.209C195.059 342.219 198.809 342.231 200.172 338.486C201.615 334.52 198.472 331.417 195.699 328.68C192.783 325.801 191.07 323.898 191.854 321.742C192.596 319.702 194.964 319.469 198.777 319.327C202.554 319.187 207.256 319.012 208.853 314.621C210.445 310.243 206.998 306.98 204.227 304.358C201.427 301.707 199.78 299.952 200.515 297.931C201.3 295.775 204.017 295.417 208.072 295.117C211.866 294.836 216.166 294.518 217.515 290.81C218.874 287.077 215.776 283.786 213.042 280.883C210.696 278.391 208.481 276.038 209.197 274.066C209.801 272.406 212.066 272.158 215.723 271.945C219.661 271.718 224.563 271.434 226.197 266.944C227.722 262.75 224.656 260.003 221.951 257.578Z" fill="#008755"/>
<path fill-rule="evenodd" clip-rule="evenodd" d="M161.232 90.6385C158.393 93.3305 156.524 94.9057 154.492 94.0897C152.569 93.3177 152.42 91.0509 152.405 87.4085C152.39 83.7997 152.37 79.3085 148.23 77.6465C144.103 75.9909 140.882 79.1773 138.292 81.7389C135.676 84.3273 133.95 85.8433 132.045 85.0789C130.012 84.2629 129.756 81.6593 129.596 77.7809C129.447 74.1517 129.278 70.0389 125.782 68.6357C122.264 67.2221 119.027 70.0753 116.172 72.5917C113.719 74.7525 111.405 76.7921 109.546 76.0465C107.981 75.4181 107.814 73.2497 107.727 69.7541C107.633 65.9893 107.516 61.3029 103.283 59.6041C99.33 58.0173 96.6128 60.8565 94.214 63.3613C91.4044 66.2969 89.478 67.9909 86.4308 66.7677L85.2928 69.6025C90.4768 71.6841 93.772 68.2405 96.4208 65.4741C98.986 62.7953 100.303 61.7005 102.145 62.4385C104.354 63.3253 104.574 65.8225 104.674 69.8305C104.763 73.4061 104.864 77.4593 108.408 78.8821C112.012 80.3285 115.295 77.4357 118.191 74.8837C120.598 72.7621 122.872 70.7605 124.644 71.4705C126.192 72.0913 126.4 74.4217 126.544 77.9065C126.698 81.6461 126.888 86.3005 130.907 87.9137C134.809 89.4801 137.801 86.5213 140.441 83.9113C143.17 81.2117 144.98 79.6349 147.092 80.4817C149.173 81.3177 149.333 83.6613 149.35 87.4217C149.365 90.9453 149.384 95.3313 153.354 96.9245C157.35 98.5297 160.529 95.5145 163.334 92.8549C166.033 90.2957 167.801 88.7933 169.591 89.5137C170.99 90.0753 171.081 91.4593 170.964 94.7197C170.825 98.5777 170.634 103.862 176.775 106.327L177.914 103.492C174.044 101.938 173.859 99.1833 174.017 94.8293C174.13 91.6729 174.259 88.0953 170.728 86.6781C166.989 85.1769 163.931 88.0789 161.232 90.6385ZM53.21 110.994C53.21 110.11 52.4936 109.394 51.61 109.394H0V112.594H51.61C52.4936 112.594 53.21 111.878 53.21 110.994Z" fill="#008755"/>
<path fill-rule="evenodd" clip-rule="evenodd" d="M393.007 206.993V193.007H400V189.807H389.807V210.193H400V206.993H393.007Z" fill="#008755"/>
<path fill-rule="evenodd" clip-rule="evenodd" d="M394.675 287.699L379.573 302.065L381.78 304.384L394.473 292.308L400 298.579V293.739L394.675 287.699Z" fill="#008755"/>
<path fill-rule="evenodd" clip-rule="evenodd" d="M391.407 109.394C390.523 109.394 389.807 110.11 389.807 110.994C389.807 111.878 390.523 112.594 391.407 112.594H400V109.394H391.407ZM184.631 147.715C184.079 147.024 183.073 146.911 182.382 147.462C181.691 148.014 181.578 149.02 182.129 149.711L221.782 199.398C222.097 199.794 222.563 200 223.033 200C223.383 200 223.735 199.886 224.03 199.65C224.721 199.099 224.834 198.092 224.283 197.402L184.631 147.715ZM67.3475 205.394C46.9063 214.409 43.0399 238.104 42.8851 239.108C42.7435 240.029 43.3747 240.89 44.2959 241.033C44.6011 241.08 44.8995 241.042 45.1679 240.938C45.7091 240.725 46.1267 240.24 46.2227 239.624C46.2583 239.396 49.9871 216.742 68.7099 208.483C78.4515 204.195 88.8359 205.808 95.8339 207.924C103.536 210.252 108.962 213.68 109.015 213.713C109.801 214.216 110.844 213.985 111.347 213.2C111.849 212.414 111.619 211.37 110.833 210.868C109.901 210.272 87.7607 196.38 67.3475 205.394Z" fill="#008755"/>
<path fill-rule="evenodd" clip-rule="evenodd" d="M323.884 87.0796C323.508 86.6768 322.934 86.4788 322.358 86.61C322.145 86.6588 300.887 91.296 287.067 77.6932C279.883 70.6128 277.672 60.902 277.089 53.9984C276.447 46.4004 277.568 40.4228 277.579 40.364C277.746 39.4968 277.179 38.6584 276.311 38.49C275.443 38.3228 274.605 38.8908 274.437 39.758C274.239 40.7876 269.745 65.146 284.822 79.9732C299.911 94.8252 322.133 89.9448 323.071 89.7296C323.932 89.5324 324.469 88.6756 324.273 87.814C324.208 87.5288 324.071 87.2792 323.884 87.0796ZM146.296 0H141.646C136.238 4.9536 127.941 10.3444 117.418 10.3784C107.331 10.404 98.9266 5.0612 93.6534 0.5672C93.4314 0.378 93.2146 0.1892 92.9994 0H88.2682C94.4226 6.1128 104.601 13.6248 117.428 13.578C130.855 13.5348 140.733 5.8352 146.296 0Z" fill="#008755"/>
<path fill-rule="evenodd" clip-rule="evenodd" d="M312.695 307.163C297.056 292.892 275.034 298.608 274.105 298.859C273.252 299.089 272.747 299.965 272.975 300.818C273.052 301.101 273.199 301.345 273.392 301.538C273.783 301.926 274.365 302.102 274.935 301.949C275.146 301.893 296.213 296.456 310.538 309.527C317.986 316.325 320.56 325.951 321.404 332.827C322.333 340.395 321.439 346.411 321.429 346.471C321.295 347.344 321.895 348.161 322.767 348.295C323.641 348.429 324.457 347.831 324.592 346.957C324.751 345.922 328.323 321.408 312.695 307.163Z" fill="#008755"/>
<path fill-rule="evenodd" clip-rule="evenodd" d="M152.21 210.251C151.358 210.017 150.477 210.517 150.243 211.369L132.944 274.251C132.709 275.103 133.21 275.983 134.062 276.218C134.204 276.257 134.347 276.275 134.487 276.275C135.19 276.275 135.834 275.809 136.029 275.099L153.328 212.218C153.563 211.366 153.062 210.485 152.21 210.251ZM31.3598 10.0596C31.495 10.0008 31.6178 9.926 31.727 9.8372C32.2738 9.3964 32.4822 8.6288 32.1882 7.9536L28.7246 0H25.2338L29.2542 9.232C29.607 10.0416 30.5498 10.4124 31.3598 10.0596Z" fill="#008755"/>
<path fill-rule="evenodd" clip-rule="evenodd" d="M337.385 389.807V400H340.585V393.007H354.571V400H357.771V389.807H337.385Z" fill="#008755"/>
<path fill-rule="evenodd" clip-rule="evenodd" d="M277.416 392.605L277.392 389.407L256.601 389.561L256.933 400H260.135L259.904 392.737L277.416 392.605Z" fill="#008755"/>
<path fill-rule="evenodd" clip-rule="evenodd" d="M84.4067 390.536C83.9147 389.802 82.9215 389.606 82.1867 390.097C81.4527 390.589 81.2559 391.583 81.7479 392.317C81.9771 392.659 84.2767 396.036 88.2683 400H92.9995C87.5959 395.243 84.4387 390.584 84.4067 390.536ZM150.973 391.384C150.726 391.227 150.453 391.146 150.18 391.136C149.629 391.114 149.082 391.378 148.765 391.876C148.711 391.96 146.205 395.825 141.646 400H146.296C149.505 396.634 151.279 393.888 151.467 393.59C151.94 392.844 151.719 391.858 150.973 391.384ZM4.04306 347.332C3.23346 347.685 2.86226 348.627 3.21506 349.438L25.2335 400H28.7243L6.14906 348.159C5.79626 347.35 4.85346 346.979 4.04306 347.332ZM337.386 59.6005C336.799 59.6005 336.235 59.2765 335.954 58.7165C335.558 57.9265 335.878 56.9653 336.668 56.5693L375.683 37.0301C376.472 36.6353 377.435 36.9541 377.83 37.7445C378.226 38.5345 377.907 39.4957 377.116 39.8917L338.101 59.4309C337.871 59.5457 337.627 59.6005 337.386 59.6005Z" fill="#008755"/>
</g>
</svg>
