<svg width="254" height="259" viewBox="0 0 254 259" fill="none" xmlns="http://www.w3.org/2000/svg">
<path fill-rule="evenodd" clip-rule="evenodd" d="M128.874 45.1862C135.019 45.2906 139.081 45.6562 143.196 46.4917C146.373 47.1183 151.268 48.476 154.132 49.4681C156.997 50.4603 161.319 52.288 163.767 53.5412C166.215 54.7422 170.329 57.1965 172.881 58.9197C175.433 60.643 179.339 63.6194 181.474 65.4993C183.609 67.4314 186.838 70.669 188.661 72.7577C190.484 74.7943 193.348 78.6585 195.119 81.2172C196.837 83.7759 199.337 88.0578 200.587 90.6166C201.889 93.1753 203.764 97.7705 204.753 100.799C205.795 103.828 207.045 108.528 207.566 111.243C208.138 113.958 208.711 119.494 208.868 123.514C209.076 127.953 208.972 132.914 208.607 136.047C208.295 138.919 207.409 143.723 206.68 146.752C205.951 149.78 204.441 154.585 203.347 157.457C202.201 160.329 200.066 164.819 198.608 167.378C197.15 169.937 194.65 173.853 193.035 175.994C191.473 178.135 188.244 181.895 185.953 184.297C183.609 186.699 179.859 190.146 177.568 191.921C175.276 193.749 171.162 196.516 168.454 198.135C165.746 199.754 161.528 201.895 159.08 202.939C156.632 203.931 152.778 205.341 150.487 206.02C148.195 206.699 144.185 207.691 141.633 208.213C138.196 208.892 134.342 209.101 127.051 209.153C119.76 209.153 115.854 208.892 112.209 208.213C109.5 207.691 104.553 206.386 101.272 205.289C97.9909 204.192 93.0434 202.156 90.3353 200.798C87.6272 199.441 84.7628 197.874 82.5234 196.36L68.8266 205.132C55.8068 213.435 55.0777 213.853 52.5779 213.853C50.9634 213.853 49.401 213.487 48.5157 212.913C47.7345 212.443 46.6408 211.242 46.068 210.302C45.0784 208.683 45.0264 207.691 45.0264 165.551C45.0264 137.509 45.2347 120.851 45.5992 117.77C45.9117 115.212 46.7971 110.512 47.6303 107.327C48.4115 104.141 50.1301 99.0238 51.4842 95.8384C52.7862 92.6531 55.0777 88.1101 56.5359 85.6558C57.9941 83.2015 60.546 79.4417 62.1604 77.3008C63.7749 75.1598 67.2121 71.2956 69.8161 68.6847C72.42 66.1259 76.7426 62.4184 79.4507 60.4863C82.1588 58.502 86.5856 55.7866 89.2937 54.3767C92.0018 52.9668 96.0119 51.0869 98.1472 50.2514C100.282 49.4159 104.501 48.1105 107.521 47.3272C110.542 46.5961 114.604 45.7606 116.635 45.4995C118.666 45.1862 124.135 45.0818 128.874 45.1862ZM110.907 76.2564C108.928 76.883 105.282 78.4496 102.834 79.7028C100.387 80.9561 96.8973 83.1493 95.0224 84.5592C93.1476 85.9691 90.2311 88.58 88.5125 90.4077C86.7939 92.2353 84.3982 95.1596 83.2525 96.8828C82.0547 98.606 80.284 101.687 79.2945 103.671C78.2529 105.656 76.8468 109.206 76.1177 111.504C75.3885 113.802 74.5032 117.823 74.1907 120.381C73.7741 123.149 73.6699 127.222 73.8262 130.303C74.0345 133.175 74.6594 137.405 75.2323 139.702C75.8052 142 77.1072 145.76 78.0967 148.057C79.1383 150.355 80.7006 153.488 81.6381 155.002C82.5234 156.517 84.7107 159.441 86.4293 161.53C88.2 163.618 91.5852 166.908 93.9808 168.84C96.4285 170.772 100.178 173.279 102.313 174.376C104.449 175.472 107.886 176.986 109.865 177.718C111.896 178.396 115.75 179.389 118.458 179.859C121.166 180.328 125.02 180.694 127.051 180.694C129.082 180.694 132.832 180.328 135.384 179.911C137.936 179.441 141.581 178.605 143.456 177.979C145.331 177.404 148.664 175.994 150.903 174.898L154.914 172.861C162.569 174.898 165.277 175.472 165.85 175.472C166.423 175.472 167.777 175.054 168.819 174.584C169.86 174.062 171.162 172.913 171.683 172.078C172.204 171.242 172.62 169.728 172.62 168.788C172.62 167.9 172.1 165.185 171.527 162.835L170.433 158.501C173.766 152.809 175.433 149.572 176.266 147.535C177.099 145.499 178.297 141.739 178.922 139.18C179.912 135.316 180.12 133.123 180.068 126.909C180.068 120.538 179.859 118.554 178.766 114.376C178.037 111.661 176.526 107.431 175.381 104.977C174.287 102.522 172.308 99.0238 171.058 97.1439C169.756 95.264 167.308 92.2353 165.59 90.4077C163.871 88.58 160.955 85.9691 159.08 84.5592C157.205 83.1493 153.716 80.9561 151.268 79.7028C148.82 78.4496 145.331 76.9352 143.456 76.3608C141.581 75.7342 137.936 74.8987 135.384 74.4287C132.832 74.011 128.822 73.6455 126.53 73.6977C124.239 73.7499 120.593 74.0632 118.458 74.4287C116.323 74.742 112.938 75.5775 110.907 76.2564Z" fill="#00BB75"/>
</svg>
