<svg width="226" height="230" viewBox="0 0 226 230" fill="none" xmlns="http://www.w3.org/2000/svg">
<path fill-rule="evenodd" clip-rule="evenodd" d="M114.488 40.5072C119.947 40.5997 123.556 40.9236 127.211 41.6638C130.033 42.219 134.382 43.4219 136.926 44.3009C139.471 45.18 143.311 46.7993 145.485 47.9097C147.66 48.9738 151.315 51.1483 153.582 52.675C155.849 54.2018 159.319 56.8389 161.216 58.5045C163.113 60.2163 165.981 63.0848 167.6 64.9354C169.22 66.7397 171.764 70.1634 173.337 72.4304C174.864 74.6974 177.085 78.4912 178.195 80.7582C179.352 83.0252 181.017 87.0966 181.896 89.78C182.822 92.4634 183.932 96.6273 184.395 99.0331C184.904 101.439 185.413 106.343 185.551 109.906C185.737 113.838 185.644 118.233 185.32 121.009C185.043 123.554 184.256 127.81 183.608 130.494C182.961 133.177 181.619 137.434 180.647 139.978C179.629 142.523 177.733 146.502 176.437 148.769C175.142 151.036 172.921 154.506 171.487 156.402C170.099 158.299 167.23 161.63 165.195 163.759C163.113 165.887 159.782 168.94 157.746 170.513C155.71 172.133 152.055 174.585 149.649 176.019C147.244 177.453 143.496 179.35 141.322 180.275C139.147 181.154 135.723 182.404 133.688 183.005C131.652 183.607 128.09 184.486 125.823 184.948C122.769 185.55 119.345 185.735 112.868 185.781C106.391 185.781 102.921 185.55 99.6826 184.948C97.2768 184.486 92.8815 183.329 89.9668 182.357C87.0521 181.386 82.6568 179.581 80.251 178.379C77.8452 177.176 75.3006 175.788 73.3112 174.446L61.1434 182.219C49.577 189.575 48.9293 189.945 46.7085 189.945C45.2743 189.945 43.8863 189.621 43.0998 189.112C42.4058 188.696 41.4342 187.632 40.9253 186.799C40.0463 185.365 40 184.486 40 147.149C40 122.305 40.1851 107.546 40.5089 104.816C40.7865 102.549 41.573 98.3854 42.3133 95.5632C43.0073 92.741 44.534 88.207 45.7369 85.3848C46.8936 82.5626 48.9293 78.5375 50.2247 76.363C51.5201 74.1885 53.7871 70.8574 55.2214 68.9605C56.6556 67.0636 59.7091 63.64 62.0224 61.3267C64.3357 59.0597 68.1757 55.7748 70.5815 54.063C72.9873 52.3049 76.9199 49.8991 79.3257 48.6499C81.7315 47.4007 85.294 45.7352 87.1909 44.9949C89.0878 44.2547 92.8353 43.098 95.5187 42.4041C98.2021 41.7563 101.811 41.0161 103.615 40.7848C105.42 40.5072 110.277 40.4146 114.488 40.5072ZM98.5259 68.0352C96.7678 68.5904 93.5293 69.9783 91.3548 71.0887C89.1803 72.1991 86.0805 74.1422 84.4149 75.3914C82.7494 76.6406 80.1585 78.9539 78.6317 80.5731C77.105 82.1924 74.9768 84.7833 73.9589 86.3101C72.8948 87.8368 71.3218 90.5665 70.4427 92.3246C69.5174 94.0827 68.2683 97.2287 67.6205 99.2644C66.9728 101.3 66.1863 104.863 65.9087 107.13C65.5386 109.582 65.4461 113.19 65.5849 115.92C65.7699 118.465 66.3251 122.212 66.834 124.248C67.3429 126.284 68.4996 129.615 69.3786 131.65C70.3039 133.686 71.6919 136.462 72.5247 137.804C73.3112 139.145 75.2544 141.736 76.7811 143.587C78.3541 145.437 81.3614 148.352 83.4896 150.064C85.6641 151.776 88.9952 153.997 90.8921 154.968C92.789 155.94 95.8425 157.281 97.6006 157.929C99.405 158.531 102.829 159.41 105.234 159.826C107.64 160.242 111.064 160.566 112.868 160.566C114.673 160.566 118.004 160.242 120.271 159.872C122.538 159.456 125.776 158.716 127.442 158.16C129.107 157.652 132.068 156.402 134.058 155.431L137.62 153.626C144.421 155.431 146.827 155.94 147.336 155.94C147.845 155.94 149.048 155.57 149.973 155.153C150.899 154.691 152.055 153.673 152.518 152.932C152.981 152.192 153.351 150.851 153.351 150.018C153.351 149.231 152.888 146.825 152.379 144.743L151.407 140.903C154.368 135.86 155.849 132.992 156.589 131.188C157.329 129.383 158.394 126.052 158.949 123.785C159.828 120.362 160.013 118.418 159.967 112.913C159.967 107.268 159.782 105.51 158.81 101.809C158.162 99.4032 156.821 95.6557 155.803 93.4812C154.831 91.3068 153.073 88.207 151.963 86.5414C150.806 84.8758 148.632 82.1924 147.105 80.5731C145.578 78.9539 142.987 76.6406 141.322 75.3914C139.656 74.1422 136.556 72.1991 134.382 71.0887C132.207 69.9783 129.107 68.6366 127.442 68.1277C125.776 67.5725 122.538 66.8323 120.271 66.4159C118.004 66.0458 114.441 65.7219 112.406 65.7682C110.37 65.8144 107.131 66.092 105.234 66.4159C103.338 66.6935 100.33 67.4337 98.5259 68.0352Z" fill="white"/>
</svg>
