<svg width="226" height="230" viewBox="0 0 226 230" fill="none" xmlns="http://www.w3.org/2000/svg">
<path fill-rule="evenodd" clip-rule="evenodd" d="M114.488 40.0347C119.947 40.1272 123.556 40.4511 127.211 41.1913C130.033 41.7465 134.382 42.9494 136.926 43.8285C139.471 44.7075 143.311 46.3268 145.485 47.4372C147.66 48.5013 151.315 50.6758 153.582 52.2025C155.849 53.7293 159.319 56.3664 161.216 58.032C163.113 59.7438 165.981 62.6123 167.6 64.4629C169.22 66.2673 171.764 69.6909 173.337 71.9579C174.864 74.2249 177.085 78.0187 178.195 80.2857C179.352 82.5527 181.017 86.6241 181.896 89.3075C182.822 91.9909 183.932 96.1548 184.395 98.5606C184.904 100.966 185.413 105.871 185.551 109.433C185.737 113.366 185.644 117.761 185.32 120.537C185.043 123.081 184.256 127.338 183.608 130.021C182.961 132.705 181.619 136.961 180.647 139.506C179.629 142.05 177.733 146.029 176.437 148.296C175.142 150.563 172.921 154.033 171.487 155.93C170.099 157.827 167.23 161.158 165.195 163.286C163.113 165.414 159.782 168.468 157.746 170.041C155.71 171.66 152.055 174.112 149.649 175.547C147.244 176.981 143.496 178.878 141.322 179.803C139.147 180.682 135.723 181.931 133.688 182.533C131.652 183.134 128.09 184.013 125.823 184.476C122.769 185.077 119.345 185.262 112.868 185.309C106.391 185.309 102.921 185.077 99.6826 184.476C97.2768 184.013 92.8815 182.856 89.9668 181.885C87.0521 180.913 82.6568 179.109 80.251 177.906C77.8452 176.703 75.3006 175.315 73.3112 173.973L61.1434 181.746C49.577 189.102 48.9293 189.472 46.7085 189.472C45.2743 189.472 43.8863 189.149 43.0998 188.64C42.4058 188.223 41.4342 187.159 40.9253 186.326C40.0463 184.892 40 184.013 40 146.677C40 121.832 40.1851 107.073 40.5089 104.344C40.7865 102.077 41.573 97.9129 42.3133 95.0907C43.0073 92.2685 44.534 87.7345 45.7369 84.9123C46.8936 82.0901 48.9293 78.065 50.2247 75.8905C51.5201 73.716 53.7871 70.3849 55.2214 68.488C56.6556 66.5911 59.7091 63.1675 62.0224 60.8542C64.3357 58.5872 68.1757 55.3023 70.5815 53.5905C72.9873 51.8324 76.9199 49.4266 79.3257 48.1774C81.7315 46.9283 85.294 45.2627 87.1909 44.5225C89.0878 43.7822 92.8353 42.6256 95.5187 41.9316C98.2021 41.2839 101.811 40.5436 103.615 40.3123C105.42 40.0347 110.277 39.9422 114.488 40.0347ZM98.5259 67.5627C96.7678 68.1179 93.5293 69.5059 91.3548 70.6162C89.1803 71.7266 86.0805 73.6698 84.4149 74.9189C82.7494 76.1681 80.1585 78.4814 78.6317 80.1007C77.105 81.72 74.9768 84.3108 73.9589 85.8376C72.8948 87.3644 71.3218 90.094 70.4427 91.8521C69.5174 93.6102 68.2683 96.7563 67.6205 98.792C66.9728 100.828 66.1863 104.39 65.9087 106.657C65.5386 109.109 65.4461 112.718 65.5849 115.448C65.7699 117.992 66.3251 121.74 66.834 123.775C67.3429 125.811 68.4996 129.142 69.3786 131.178C70.3039 133.214 71.6919 135.989 72.5247 137.331C73.3112 138.673 75.2544 141.264 76.7811 143.114C78.3541 144.965 81.3614 147.88 83.4896 149.592C85.6641 151.303 88.9952 153.524 90.8921 154.496C92.789 155.467 95.8425 156.809 97.6006 157.457C99.405 158.058 102.829 158.937 105.234 159.354C107.64 159.77 111.064 160.094 112.868 160.094C114.673 160.094 118.004 159.77 120.271 159.4C122.538 158.983 125.776 158.243 127.442 157.688C129.107 157.179 132.068 155.93 134.058 154.958L137.62 153.154C144.421 154.958 146.827 155.467 147.336 155.467C147.845 155.467 149.048 155.097 149.973 154.681C150.899 154.218 152.055 153.2 152.518 152.46C152.981 151.72 153.351 150.378 153.351 149.545C153.351 148.759 152.888 146.353 152.379 144.271L151.407 140.431C154.368 135.388 155.849 132.52 156.589 130.715C157.329 128.911 158.394 125.58 158.949 123.313C159.828 119.889 160.013 117.946 159.967 112.44C159.967 106.796 159.782 105.038 158.81 101.337C158.162 98.9308 156.821 95.1832 155.803 93.0088C154.831 90.8343 153.073 87.7345 151.963 86.0689C150.806 84.4034 148.632 81.72 147.105 80.1007C145.578 78.4814 142.987 76.1681 141.322 74.9189C139.656 73.6698 136.556 71.7266 134.382 70.6162C132.207 69.5059 129.107 68.1642 127.442 67.6552C125.776 67.1 122.538 66.3598 120.271 65.9434C118.004 65.5733 114.441 65.2494 112.406 65.2957C110.37 65.342 107.131 65.6196 105.234 65.9434C103.338 66.221 100.33 66.9613 98.5259 67.5627Z" fill="#00BB75"/>
</svg>
