<svg width="226" height="231" viewBox="0 0 226 231" fill="none" xmlns="http://www.w3.org/2000/svg">
<path fill-rule="evenodd" clip-rule="evenodd" d="M114.488 40.9796C119.947 41.0722 123.556 41.396 127.211 42.1363C130.033 42.6915 134.382 43.8944 136.926 44.7734C139.471 45.6525 143.311 47.2718 145.485 48.3821C147.66 49.4462 151.315 51.6207 153.582 53.1475C155.849 54.6743 159.319 57.3114 161.216 58.9769C163.113 60.6888 165.981 63.5572 167.6 65.4079C169.22 67.2122 171.764 70.6359 173.337 72.9029C174.864 75.1699 177.085 78.9637 178.195 81.2307C179.352 83.4977 181.017 87.5691 181.896 90.2525C182.822 92.9359 183.932 97.0998 184.395 99.5056C184.904 101.911 185.413 106.816 185.551 110.378C185.737 114.311 185.644 118.706 185.32 121.482C185.043 124.026 184.256 128.283 183.608 130.966C182.961 133.65 181.619 137.906 180.647 140.451C179.629 142.995 177.733 146.974 176.437 149.241C175.142 151.508 172.921 154.978 171.487 156.875C170.099 158.772 167.23 162.103 165.195 164.231C163.113 166.359 159.782 169.413 157.746 170.986C155.71 172.605 152.055 175.057 149.649 176.491C147.244 177.926 143.496 179.823 141.322 180.748C139.147 181.627 135.723 182.876 133.688 183.478C131.652 184.079 128.09 184.958 125.823 185.421C122.769 186.022 119.345 186.207 112.868 186.253C106.391 186.253 102.921 186.022 99.6826 185.421C97.2768 184.958 92.8815 183.801 89.9668 182.83C87.0521 181.858 82.6568 180.054 80.251 178.851C77.8452 177.648 75.3006 176.26 73.3112 174.918L61.1434 182.691C49.577 190.047 48.9293 190.417 46.7085 190.417C45.2743 190.417 43.8863 190.094 43.0998 189.585C42.4058 189.168 41.4342 188.104 40.9253 187.271C40.0463 185.837 40 184.958 40 147.622C40 122.777 40.1851 108.018 40.5089 105.289C40.7865 103.022 41.573 98.8579 42.3133 96.0357C43.0073 93.2135 44.534 88.6794 45.7369 85.8572C46.8936 83.035 48.9293 79.0099 50.2247 76.8354C51.5201 74.661 53.7871 71.3299 55.2214 69.433C56.6556 67.5361 59.7091 64.1124 62.0224 61.7991C64.3357 59.5321 68.1757 56.2473 70.5815 54.5355C72.9873 52.7774 76.9199 50.3716 79.3257 49.1224C81.7315 47.8732 85.294 46.2077 87.1909 45.4674C89.0878 44.7272 92.8353 43.5705 95.5187 42.8765C98.2021 42.2288 101.811 41.4886 103.615 41.2572C105.42 40.9796 110.277 40.8871 114.488 40.9796ZM98.5259 68.5077C96.7678 69.0628 93.5293 70.4508 91.3548 71.5612C89.1803 72.6716 86.0805 74.6147 84.4149 75.8639C82.7494 77.113 80.1585 79.4263 78.6317 81.0456C77.105 82.6649 74.9768 85.2558 73.9589 86.7825C72.8948 88.3093 71.3218 91.039 70.4427 92.7971C69.5174 94.5552 68.2683 97.7012 67.6205 99.7369C66.9728 101.773 66.1863 105.335 65.9087 107.602C65.5386 110.054 65.4461 113.663 65.5849 116.393C65.7699 118.937 66.3251 122.685 66.834 124.72C67.3429 126.756 68.4996 130.087 69.3786 132.123C70.3039 134.158 71.6919 136.934 72.5247 138.276C73.3112 139.618 75.2544 142.209 76.7811 144.059C78.3541 145.91 81.3614 148.825 83.4896 150.536C85.6641 152.248 88.9952 154.469 90.8921 155.441C92.789 156.412 95.8425 157.754 97.6006 158.402C99.405 159.003 102.829 159.882 105.234 160.299C107.64 160.715 111.064 161.039 112.868 161.039C114.673 161.039 118.004 160.715 120.271 160.345C122.538 159.928 125.776 159.188 127.442 158.633C129.107 158.124 132.068 156.875 134.058 155.903L137.62 154.099C144.421 155.903 146.827 156.412 147.336 156.412C147.845 156.412 149.048 156.042 149.973 155.626C150.899 155.163 152.055 154.145 152.518 153.405C152.981 152.665 153.351 151.323 153.351 150.49C153.351 149.704 152.888 147.298 152.379 145.216L151.407 141.376C154.368 136.333 155.849 133.464 156.589 131.66C157.329 129.856 158.394 126.525 158.949 124.258C159.828 120.834 160.013 118.891 159.967 113.385C159.967 107.741 159.782 105.983 158.81 102.282C158.162 99.8757 156.821 96.1282 155.803 93.9537C154.831 91.7792 153.073 88.6794 151.963 87.0139C150.806 85.3483 148.632 82.6649 147.105 81.0456C145.578 79.4263 142.987 77.113 141.322 75.8639C139.656 74.6147 136.556 72.6716 134.382 71.5612C132.207 70.4508 129.107 69.1091 127.442 68.6002C125.776 68.045 122.538 67.3047 120.271 66.8884C118.004 66.5182 114.441 66.1944 112.406 66.2406C110.37 66.2869 107.131 66.5645 105.234 66.8884C103.338 67.166 100.33 67.9062 98.5259 68.5077Z" fill="black"/>
</svg>
