<svg width="772" height="231" viewBox="0 0 772 231" fill="none" xmlns="http://www.w3.org/2000/svg">
<path fill-rule="evenodd" clip-rule="evenodd" d="M114.488 40.9245C119.947 41.017 123.556 41.3409 127.211 42.0811C130.033 42.6363 134.382 43.8392 136.926 44.7182C139.471 45.5973 143.311 47.2166 145.485 48.327C147.66 49.3911 151.315 51.5655 153.582 53.0923C155.849 54.6191 159.319 57.2562 161.216 58.9218C163.113 60.6336 165.981 63.5021 167.6 65.3527C169.22 67.157 171.764 70.5807 173.337 72.8477C174.864 75.1147 177.085 78.9085 178.195 81.1755C179.352 83.4425 181.017 87.5139 181.896 90.1973C182.822 92.8807 183.932 97.0446 184.395 99.4504C184.904 101.856 185.413 106.76 185.551 110.323C185.737 114.255 185.644 118.651 185.32 121.427C185.043 123.971 184.256 128.228 183.608 130.911C182.961 133.594 181.619 137.851 180.647 140.395C179.629 142.94 177.733 146.919 176.437 149.186C175.142 151.453 172.921 154.923 171.487 156.82C170.099 158.717 167.23 162.048 165.195 164.176C163.113 166.304 159.782 169.358 157.746 170.931C155.71 172.55 152.055 175.002 149.649 176.436C147.244 177.871 143.496 179.767 141.322 180.693C139.147 181.572 135.723 182.821 133.688 183.422C131.652 184.024 128.09 184.903 125.823 185.366C122.769 185.967 119.345 186.152 112.868 186.198C106.391 186.198 102.921 185.967 99.6826 185.366C97.2768 184.903 92.8815 183.746 89.9668 182.775C87.0521 181.803 82.6568 179.999 80.251 178.796C77.8452 177.593 75.3006 176.205 73.3112 174.863L61.1434 182.636C49.577 189.992 48.9293 190.362 46.7085 190.362C45.2743 190.362 43.8863 190.038 43.0998 189.529C42.4058 189.113 41.4342 188.049 40.9253 187.216C40.0463 185.782 40 184.903 40 147.567C40 122.722 40.1851 107.963 40.5089 105.234C40.7865 102.967 41.573 98.8027 42.3133 95.9805C43.0073 93.1583 44.534 88.6243 45.7369 85.8021C46.8936 82.9799 48.9293 78.9548 50.2247 76.7803C51.5201 74.6058 53.7871 71.2747 55.2214 69.3778C56.6556 67.4809 59.7091 64.0572 62.0224 61.744C64.3357 59.477 68.1757 56.1921 70.5815 54.4803C72.9873 52.7222 76.9199 50.3164 79.3257 49.0672C81.7315 47.818 85.294 46.1525 87.1909 45.4122C89.0878 44.672 92.8353 43.5153 95.5187 42.8214C98.2021 42.1736 101.811 41.4334 103.615 41.2021C105.42 40.9245 110.277 40.8319 114.488 40.9245ZM98.5259 68.4525C96.7678 69.0077 93.5293 70.3956 91.3548 71.506C89.1803 72.6164 86.0805 74.5595 84.4149 75.8087C82.7494 77.0579 80.1585 79.3711 78.6317 80.9904C77.105 82.6097 74.9768 85.2006 73.9589 86.7274C72.8948 88.2541 71.3218 90.9838 70.4427 92.7419C69.5174 94.5 68.2683 97.646 67.6205 99.6817C66.9728 101.717 66.1863 105.28 65.9087 107.547C65.5386 109.999 65.4461 113.608 65.5849 116.337C65.7699 118.882 66.3251 122.629 66.834 124.665C67.3429 126.701 68.4996 130.032 69.3786 132.068C70.3039 134.103 71.6919 136.879 72.5247 138.221C73.3112 139.563 75.2544 142.154 76.7811 144.004C78.3541 145.855 81.3614 148.769 83.4896 150.481C85.6641 152.193 88.9952 154.414 90.8921 155.385C92.789 156.357 95.8425 157.699 97.6006 158.346C99.405 158.948 102.829 159.827 105.234 160.243C107.64 160.66 111.064 160.984 112.868 160.984C114.673 160.984 118.004 160.66 120.271 160.29C122.538 159.873 125.776 159.133 127.442 158.578C129.107 158.069 132.068 156.82 134.058 155.848L137.62 154.044C144.421 155.848 146.827 156.357 147.336 156.357C147.845 156.357 149.048 155.987 149.973 155.571C150.899 155.108 152.055 154.09 152.518 153.35C152.981 152.61 153.351 151.268 153.351 150.435C153.351 149.649 152.888 147.243 152.379 145.161L151.407 141.321C154.368 136.278 155.849 133.409 156.589 131.605C157.329 129.801 158.394 126.469 158.949 124.202C159.828 120.779 160.013 118.836 159.967 113.33C159.967 107.686 159.782 105.928 158.81 102.226C158.162 99.8205 156.821 96.073 155.803 93.8985C154.831 91.7241 153.073 88.6243 151.963 86.9587C150.806 85.2931 148.632 82.6097 147.105 80.9904C145.578 79.3711 142.987 77.0579 141.322 75.8087C139.656 74.5595 136.556 72.6164 134.382 71.506C132.207 70.3956 129.107 69.0539 127.442 68.545C125.776 67.9898 122.538 67.2496 120.271 66.8332C118.004 66.4631 114.441 66.1392 112.406 66.1855C110.37 66.2317 107.131 66.5093 105.234 66.8332C103.338 67.1108 100.33 67.851 98.5259 68.4525Z" fill="black"/>
<path fill-rule="evenodd" clip-rule="evenodd" d="M720.225 85.0568H731.791V147.978H720.225V85.0568ZM480.338 82.4197C481.633 82.5585 483.16 83.0674 483.761 83.53C484.363 83.9927 485.288 84.9643 485.843 85.6582C486.584 86.6761 486.815 87.6477 486.815 89.6833C486.815 91.719 486.584 92.7369 485.843 93.7084C485.334 94.4024 484.178 95.5128 483.299 96.068C482.003 96.9933 481.309 97.1321 479.412 96.947C478.163 96.8082 476.59 96.2993 475.942 95.7904C475.295 95.2815 474.369 94.3099 473.861 93.6622C473.167 92.7369 472.935 91.6728 472.935 89.6833C472.935 87.6477 473.166 86.6298 473.907 85.6582C474.416 84.9643 475.572 83.8539 476.451 83.2987C477.747 82.3734 478.441 82.2346 480.338 82.4197ZM374.158 83.2062H385.725V147.978H374.158V83.2062ZM450.959 84.1315H462.525V101.25H469.465V110.966H462.525V147.978H450.959V110.966H444.945V101.25H450.959V84.1315ZM225.646 85.0568H259.882V96.6232H237.212V108.19H259.882V119.756H237.212V136.412H259.882V147.978H225.646V85.0568ZM638.057 85.2881L650.225 116.286C656.887 133.358 662.393 147.423 662.393 147.654C662.393 147.839 659.663 147.932 650.179 147.747L645.043 134.515H619.134L613.999 147.747L607.892 147.885C602.294 147.978 601.785 147.932 601.97 147.191C602.062 146.729 607.475 132.71 614.045 116.055C620.569 99.3991 626.028 85.5657 626.167 85.3806C626.259 85.1956 628.989 85.1031 638.057 85.2881ZM623.668 122.624C623.576 122.809 627.37 122.995 632.089 122.995C638.751 122.995 640.602 122.856 640.463 122.393C640.37 122.116 638.473 117.35 636.253 111.891C634.032 106.431 632.181 101.897 632.135 101.851C632.089 101.805 630.192 106.339 627.925 111.983C625.612 117.628 623.715 122.393 623.668 122.624ZM672.201 84.9643L683.397 85.1956C691.818 85.3344 695.241 85.5657 697.323 86.1672C698.85 86.5836 701.21 87.6477 702.551 88.5267C703.939 89.4983 705.605 91.1638 706.576 92.5981C707.455 93.8935 708.519 96.3456 708.936 98.0111C709.445 100.047 709.63 102.129 709.491 104.488C709.352 106.802 708.89 108.791 708.103 110.503C707.455 111.891 706.345 113.741 705.605 114.62C704.864 115.5 703.43 116.749 702.412 117.443C701.395 118.183 699.22 119.201 697.555 119.756C695.519 120.404 692.789 120.866 683.675 121.375V147.978H672.108L672.201 84.9643ZM683.675 109.809C692.373 109.346 693.992 109.069 695.102 108.421C695.935 107.912 696.953 106.848 697.323 106.015C697.693 105.182 698.017 103.841 698.017 103.008C698.017 102.175 697.601 100.833 697.092 100.001C696.583 99.1678 695.473 98.1499 694.64 97.7336C693.668 97.2246 691.54 96.8545 688.486 96.7157L683.767 96.5307L683.675 109.809ZM340.893 100.371C342.513 100.324 345.242 100.648 346.908 101.018C348.527 101.435 351.349 102.499 353.107 103.47C354.865 104.396 357.456 106.339 358.891 107.727C360.51 109.346 362.083 111.567 363.147 113.741C364.072 115.638 365.09 118.275 365.368 119.617C365.645 120.959 365.877 123.18 365.877 124.614C365.877 126.002 365.645 128.223 365.368 129.564C365.09 130.906 364.119 133.497 363.286 135.347C362.222 137.568 360.787 139.65 359.029 141.408C357.549 142.889 355.421 144.647 354.31 145.341C353.154 145.989 350.979 146.96 349.452 147.515C347.926 148.024 344.872 148.579 342.744 148.718C339.922 148.903 337.886 148.764 335.573 148.209C333.768 147.793 331.085 146.775 329.558 145.989C328.031 145.156 325.487 143.259 323.96 141.732C322.109 139.881 320.583 137.8 319.472 135.486C318.501 133.543 317.529 130.86 317.252 129.472C317.02 128.037 316.789 125.77 316.835 124.383C316.835 122.948 317.159 120.45 317.529 118.831C317.946 117.165 318.917 114.574 319.75 113.047C320.536 111.521 322.48 109.022 324.006 107.496C325.533 105.969 328.031 104.026 329.558 103.239C331.085 102.406 333.583 101.435 335.11 101.065C336.637 100.695 339.228 100.371 340.893 100.371ZM335.018 112.446C334.277 112.816 332.797 114.158 331.686 115.407C330.484 116.795 329.466 118.553 329.049 119.987C328.679 121.236 328.355 123.318 328.355 124.614C328.355 125.863 328.679 127.945 329.049 129.24C329.466 130.628 330.484 132.433 331.686 133.821C332.797 135.024 334.555 136.458 335.573 136.967C336.591 137.476 338.673 138.031 340.199 138.123C342.142 138.308 343.715 138.123 345.52 137.522C347.324 136.92 348.712 136.041 350.378 134.33C352.043 132.664 352.922 131.276 353.524 129.472C353.94 128.037 354.31 125.863 354.31 124.614C354.31 123.318 353.986 121.19 353.616 119.848C353.154 118.275 352.228 116.702 350.933 115.268C349.869 114.112 348.157 112.724 347.139 112.215C345.936 111.613 344.132 111.197 342.05 111.104C340.246 111.058 338.21 111.151 337.562 111.336C336.868 111.567 335.712 112.03 335.018 112.446ZM518.553 100.371C520.172 100.324 522.902 100.648 524.568 101.018C526.187 101.435 529.009 102.499 530.767 103.47C532.525 104.396 535.116 106.339 536.55 107.727C538.17 109.346 539.743 111.567 540.807 113.741C541.732 115.638 542.75 118.275 543.027 119.617C543.305 120.959 543.536 123.18 543.536 124.614C543.536 126.002 543.305 128.223 543.027 129.564C542.75 130.906 541.778 133.497 540.946 135.347C539.881 137.568 538.447 139.65 536.689 141.408C535.209 142.889 533.08 144.647 531.97 145.341C530.813 145.989 528.639 146.96 527.112 147.515C525.585 148.024 522.532 148.579 520.404 148.718C517.581 148.903 515.546 148.764 513.232 148.209C511.428 147.793 508.745 146.775 507.218 145.989C505.691 145.156 503.147 143.259 501.62 141.732C499.769 139.881 498.242 137.8 497.132 135.486C496.161 133.543 495.189 130.86 494.911 129.472C494.68 128.037 494.449 125.77 494.495 124.383C494.495 122.948 494.819 120.45 495.189 118.831C495.605 117.165 496.577 114.574 497.41 113.047C498.196 111.521 500.139 109.022 501.666 107.496C503.193 105.969 505.691 104.026 507.218 103.239C508.745 102.406 511.243 101.435 512.77 101.065C514.297 100.695 516.887 100.371 518.553 100.371ZM512.677 112.446C511.937 112.816 510.457 114.158 509.346 115.407C508.143 116.795 507.125 118.553 506.709 119.987C506.339 121.236 506.015 123.318 506.015 124.614C506.015 125.863 506.339 127.945 506.709 129.24C507.125 130.628 508.143 132.433 509.346 133.821C510.457 135.024 512.215 136.458 513.232 136.967C514.25 137.476 516.332 138.031 517.859 138.123C519.802 138.308 521.375 138.123 523.18 137.522C524.984 136.92 526.372 136.041 528.037 134.33C529.703 132.664 530.582 131.276 531.184 129.472C531.6 128.037 531.97 125.863 531.97 124.614C531.97 123.318 531.646 121.19 531.276 119.848C530.813 118.275 529.888 116.702 528.593 115.268C527.529 114.112 525.817 112.724 524.799 112.215C523.596 111.613 521.792 111.197 519.71 111.104C517.905 111.058 515.87 111.151 515.222 111.336C514.528 111.567 513.371 112.03 512.677 112.446ZM579.161 100.463C581.937 100.556 583.232 100.88 585.638 101.99C587.581 102.962 589.339 104.257 590.589 105.691C591.699 106.94 592.948 108.884 593.364 110.04C594.058 111.798 594.151 114.574 594.429 147.978H582.862L582.723 132.803C582.631 117.674 582.631 117.674 581.474 115.361C580.826 114.112 579.762 112.677 579.161 112.215C578.513 111.752 577.033 111.243 575.922 111.104C574.673 110.919 573.054 111.104 571.99 111.428C570.972 111.752 569.399 112.724 568.52 113.51C567.594 114.297 566.345 116.101 565.744 117.489C564.587 119.941 564.587 120.126 564.356 147.978H552.79V101.25H564.356L564.587 105.923L566.207 104.673C567.086 104.026 568.659 103.054 569.676 102.499C570.694 101.99 572.452 101.296 573.609 100.926C574.719 100.602 577.218 100.371 579.161 100.463ZM276.353 101.203L288.382 128.824L300.411 101.203H306.055C309.155 101.203 311.746 101.342 311.746 101.481C311.746 101.574 307.443 111.659 302.169 123.781C296.941 135.949 292.407 146.359 292.129 146.914C291.667 147.885 291.25 147.978 288.382 147.978C285.467 147.978 285.051 147.885 284.588 146.914C284.311 146.359 279.776 135.949 274.548 123.781C269.274 111.659 265.018 101.574 265.018 101.481C265.018 101.342 267.562 101.203 276.353 101.203ZM395.857 101.25H407.516L407.608 116.147C407.701 129.379 407.84 131.276 408.58 132.942C409.042 133.959 409.736 135.162 410.199 135.671C410.615 136.134 411.818 136.92 412.836 137.383C413.854 137.846 415.52 138.216 416.537 138.262C417.555 138.262 419.082 138.031 420.007 137.707C420.886 137.429 422.182 136.643 422.922 135.995C423.662 135.301 424.588 134.145 425.004 133.404C425.652 132.155 425.791 130.027 425.883 101.25H437.588L437.403 116.61C437.264 127.991 437.033 132.664 436.57 134.561C436.2 135.949 435.275 138.216 434.535 139.558C433.795 140.946 432.221 142.889 431.111 143.953C429.954 144.971 427.965 146.312 426.716 146.868C425.42 147.469 423.246 148.163 421.858 148.394C420.424 148.672 418.157 148.903 416.769 148.903C415.335 148.903 412.975 148.672 411.448 148.394C409.921 148.117 407.516 147.284 406.128 146.59C404.693 145.896 402.658 144.323 401.594 143.166C400.53 141.963 399.188 140.159 398.633 139.049C398.078 137.985 397.337 135.949 396.967 134.561C396.458 132.664 396.227 127.991 396.042 116.61L395.857 101.25ZM474.138 101.25H485.704V147.978H474.138V101.25Z" fill="black"/>
</svg>
