<svg width="588" height="337" viewBox="0 0 588 337" fill="none" xmlns="http://www.w3.org/2000/svg">
<path fill-rule="evenodd" clip-rule="evenodd" d="M295.528 40.9243C300.988 41.0169 304.596 41.3407 308.251 42.081C311.074 42.6362 315.423 43.8391 317.967 44.7181C320.512 45.5972 324.352 47.2165 326.526 48.3268C328.701 49.3909 332.356 51.5654 334.623 53.0922C336.89 54.619 340.36 57.2561 342.257 58.9216C344.153 60.6335 347.022 63.5019 348.641 65.3526C350.26 67.1569 352.805 70.5806 354.378 72.8476C355.905 75.1146 358.126 78.9084 359.236 81.1754C360.393 83.4424 362.058 87.5138 362.937 90.1972C363.863 92.8806 364.973 97.0445 365.436 99.4503C365.945 101.856 366.453 106.76 366.592 110.323C366.777 114.255 366.685 118.65 366.361 121.426C366.083 123.971 365.297 128.227 364.649 130.911C364.001 133.594 362.66 137.851 361.688 140.395C360.67 142.94 358.773 146.919 357.478 149.186C356.182 151.453 353.962 154.923 352.527 156.82C351.14 158.716 348.271 162.048 346.235 164.176C344.153 166.304 340.822 169.358 338.787 170.931C336.751 172.55 333.096 175.002 330.69 176.436C328.284 177.87 324.537 179.767 322.362 180.693C320.188 181.572 316.764 182.821 314.729 183.422C312.693 184.024 309.13 184.903 306.863 185.365C303.81 185.967 300.386 186.152 293.909 186.198C287.432 186.198 283.962 185.967 280.723 185.365C278.318 184.903 273.922 183.746 271.008 182.775C268.093 181.803 263.698 179.999 261.292 178.796C258.886 177.593 256.341 176.205 254.352 174.863L242.184 182.636C230.618 189.992 229.97 190.362 227.749 190.362C226.315 190.362 224.927 190.038 224.141 189.529C223.447 189.113 222.475 188.049 221.966 187.216C221.087 185.782 221.041 184.903 221.041 147.566C221.041 122.722 221.226 107.963 221.55 105.233C221.827 102.966 222.614 98.8026 223.354 95.9804C224.048 93.1582 225.575 88.6241 226.778 85.8019C227.934 82.9797 229.97 78.9546 231.265 76.7802C232.561 74.6057 234.828 71.2746 236.262 69.3777C237.696 67.4808 240.75 64.0571 243.063 61.7438C245.376 59.4768 249.217 56.192 251.622 54.4802C254.028 52.7221 257.961 50.3163 260.366 49.0671C262.772 47.8179 266.335 46.1524 268.232 45.4121C270.129 44.6719 273.876 43.5152 276.559 42.8212C279.243 42.1735 282.852 41.4333 284.656 41.2019C286.46 40.9243 291.318 40.8318 295.528 40.9243ZM279.567 68.4524C277.809 69.0075 274.57 70.3955 272.396 71.5059C270.221 72.6163 267.121 74.5594 265.456 75.8086C263.79 77.0577 261.199 79.371 259.673 80.9903C258.146 82.6096 256.018 85.2005 255 86.7272C253.936 88.254 252.363 90.9837 251.484 92.7418C250.558 94.4999 249.309 97.6459 248.661 99.6816C248.014 101.717 247.227 105.28 246.949 107.547C246.579 109.999 246.487 113.608 246.626 116.337C246.811 118.882 247.366 122.629 247.875 124.665C248.384 126.701 249.54 130.032 250.419 132.067C251.345 134.103 252.733 136.879 253.565 138.221C254.352 139.563 256.295 142.153 257.822 144.004C259.395 145.855 262.402 148.769 264.53 150.481C266.705 152.193 270.036 154.414 271.933 155.385C273.83 156.357 276.883 157.699 278.641 158.346C280.446 158.948 283.869 159.827 286.275 160.243C288.681 160.66 292.105 160.983 293.909 160.983C295.713 160.983 299.045 160.66 301.312 160.289C303.579 159.873 306.817 159.133 308.483 158.578C310.148 158.069 313.109 156.82 315.099 155.848L318.661 154.044C325.462 155.848 327.868 156.357 328.377 156.357C328.886 156.357 330.089 155.987 331.014 155.57C331.939 155.108 333.096 154.09 333.559 153.35C334.021 152.609 334.391 151.268 334.391 150.435C334.391 149.648 333.929 147.243 333.42 145.161L332.448 141.321C335.409 136.278 336.89 133.409 337.63 131.605C338.37 129.8 339.434 126.469 339.99 124.202C340.869 120.779 341.054 118.836 341.007 113.33C341.007 107.686 340.822 105.927 339.851 102.226C339.203 99.8204 337.861 96.0729 336.843 93.8984C335.872 91.7239 334.114 88.6241 333.003 86.9586C331.847 85.293 329.672 82.6096 328.146 80.9903C326.619 79.371 324.028 77.0577 322.362 75.8086C320.697 74.5594 317.597 72.6163 315.423 71.5059C313.248 70.3955 310.148 69.0538 308.483 68.5449C306.817 67.9897 303.579 67.2494 301.312 66.8331C299.045 66.4629 295.482 66.1391 293.446 66.1853C291.411 66.2316 288.172 66.5092 286.275 66.8331C284.378 67.1107 281.371 67.8509 279.567 68.4524Z" fill="black"/>
<path fill-rule="evenodd" clip-rule="evenodd" d="M535.37 233.07H546.936V295.991H535.37V233.07ZM295.483 230.433C296.778 230.572 298.305 231.081 298.907 231.543C299.508 232.006 300.433 232.978 300.989 233.672C301.729 234.689 301.96 235.661 301.96 237.697C301.96 239.732 301.729 240.75 300.989 241.722C300.48 242.416 299.323 243.526 298.444 244.081C297.148 245.007 296.454 245.145 294.558 244.96C293.308 244.822 291.735 244.313 291.088 243.804C290.44 243.295 289.515 242.323 289.006 241.675C288.312 240.75 288.08 239.686 288.08 237.697C288.08 235.661 288.312 234.643 289.052 233.672C289.561 232.978 290.718 231.867 291.597 231.312C292.892 230.387 293.586 230.248 295.483 230.433ZM189.303 231.219H200.87V295.991H189.303V231.219ZM266.104 232.145H277.671V249.263H284.611V258.979H277.671V295.991H266.104V258.979H260.09V249.263H266.104V232.145ZM40.791 233.07H75.0275V244.636H52.3574V256.203H75.0275V267.769H52.3574V284.425H75.0275V295.991H40.791V233.07ZM453.202 233.301L465.37 264.299C472.032 281.371 477.538 295.436 477.538 295.667C477.538 295.852 474.808 295.945 465.324 295.76L460.188 282.528H434.28L429.144 295.76L423.037 295.899C417.439 295.991 416.93 295.945 417.115 295.205C417.208 294.742 422.621 280.724 429.19 264.068C435.714 247.412 441.173 233.579 441.312 233.394C441.404 233.209 444.134 233.116 453.202 233.301ZM438.814 270.638C438.721 270.823 442.515 271.008 447.234 271.008C453.896 271.008 455.747 270.869 455.608 270.406C455.516 270.129 453.619 265.363 451.398 259.904C449.177 254.445 447.326 249.911 447.28 249.864C447.234 249.818 445.337 254.352 443.07 259.997C440.757 265.641 438.86 270.406 438.814 270.638ZM487.346 232.978L498.542 233.209C506.963 233.348 510.386 233.579 512.468 234.18C513.995 234.597 516.355 235.661 517.696 236.54C519.084 237.512 520.75 239.177 521.722 240.611C522.601 241.907 523.665 244.359 524.081 246.024C524.59 248.06 524.775 250.142 524.636 252.502C524.497 254.815 524.035 256.804 523.248 258.516C522.601 259.904 521.49 261.755 520.75 262.634C520.01 263.513 518.575 264.762 517.558 265.456C516.54 266.196 514.365 267.214 512.7 267.769C510.664 268.417 507.934 268.88 498.82 269.389V295.991H487.254L487.346 232.978ZM498.82 257.822C507.518 257.36 509.137 257.082 510.248 256.434C511.08 255.925 512.098 254.861 512.468 254.028C512.839 253.196 513.162 251.854 513.162 251.021C513.162 250.188 512.746 248.847 512.237 248.014C511.728 247.181 510.618 246.163 509.785 245.747C508.813 245.238 506.685 244.868 503.632 244.729L498.913 244.544L498.82 257.822ZM156.038 248.384C157.658 248.338 160.387 248.662 162.053 249.032C163.672 249.448 166.495 250.512 168.253 251.484C170.011 252.409 172.602 254.352 174.036 255.74C175.655 257.36 177.228 259.58 178.292 261.755C179.218 263.652 180.235 266.289 180.513 267.63C180.791 268.972 181.022 271.193 181.022 272.627C181.022 274.015 180.791 276.236 180.513 277.578C180.235 278.919 179.264 281.51 178.431 283.361C177.367 285.582 175.933 287.663 174.175 289.422C172.694 290.902 170.566 292.66 169.456 293.354C168.299 294.002 166.124 294.973 164.598 295.529C163.071 296.038 160.017 296.593 157.889 296.732C155.067 296.917 153.031 296.778 150.718 296.223C148.914 295.806 146.23 294.788 144.703 294.002C143.177 293.169 140.632 291.272 139.105 289.745C137.255 287.895 135.728 285.813 134.618 283.5C133.646 281.556 132.674 278.873 132.397 277.485C132.166 276.051 131.934 273.784 131.98 272.396C131.98 270.962 132.304 268.463 132.674 266.844C133.091 265.178 134.062 262.588 134.895 261.061C135.682 259.534 137.625 257.036 139.152 255.509C140.678 253.982 143.177 252.039 144.703 251.252C146.23 250.42 148.729 249.448 150.255 249.078C151.782 248.708 154.373 248.384 156.038 248.384ZM150.163 260.459C149.423 260.829 147.942 262.171 146.832 263.42C145.629 264.808 144.611 266.566 144.195 268.001C143.824 269.25 143.501 271.332 143.501 272.627C143.501 273.876 143.824 275.958 144.195 277.254C144.611 278.642 145.629 280.446 146.832 281.834C147.942 283.037 149.7 284.471 150.718 284.98C151.736 285.489 153.818 286.044 155.345 286.137C157.288 286.322 158.861 286.137 160.665 285.535C162.469 284.934 163.857 284.055 165.523 282.343C167.189 280.677 168.068 279.289 168.669 277.485C169.085 276.051 169.456 273.876 169.456 272.627C169.456 271.332 169.132 269.204 168.762 267.862C168.299 266.289 167.374 264.716 166.078 263.282C165.014 262.125 163.302 260.737 162.284 260.228C161.081 259.627 159.277 259.21 157.195 259.118C155.391 259.071 153.355 259.164 152.707 259.349C152.013 259.58 150.857 260.043 150.163 260.459ZM333.698 248.384C335.318 248.338 338.047 248.662 339.713 249.032C341.332 249.448 344.154 250.512 345.912 251.484C347.67 252.409 350.261 254.352 351.696 255.74C353.315 257.36 354.888 259.58 355.952 261.755C356.877 263.652 357.895 266.289 358.173 267.63C358.45 268.972 358.682 271.193 358.682 272.627C358.682 274.015 358.45 276.236 358.173 277.578C357.895 278.919 356.924 281.51 356.091 283.361C355.027 285.582 353.593 287.663 351.834 289.422C350.354 290.902 348.226 292.66 347.115 293.354C345.959 294.002 343.784 294.973 342.257 295.529C340.731 296.038 337.677 296.593 335.549 296.732C332.727 296.917 330.691 296.778 328.378 296.223C326.573 295.806 323.89 294.788 322.363 294.002C320.836 293.169 318.292 291.272 316.765 289.745C314.914 287.895 313.388 285.813 312.277 283.5C311.306 281.556 310.334 278.873 310.057 277.485C309.825 276.051 309.594 273.784 309.64 272.396C309.64 270.962 309.964 268.463 310.334 266.844C310.751 265.178 311.722 262.588 312.555 261.061C313.341 259.534 315.285 257.036 316.811 255.509C318.338 253.982 320.836 252.039 322.363 251.252C323.89 250.42 326.388 249.448 327.915 249.078C329.442 248.708 332.033 248.384 333.698 248.384ZM327.823 260.459C327.082 260.829 325.602 262.171 324.491 263.42C323.288 264.808 322.271 266.566 321.854 268.001C321.484 269.25 321.16 271.332 321.16 272.627C321.16 273.876 321.484 275.958 321.854 277.254C322.271 278.642 323.288 280.446 324.491 281.834C325.602 283.037 327.36 284.471 328.378 284.98C329.396 285.489 331.478 286.044 333.004 286.137C334.947 286.322 336.52 286.137 338.325 285.535C340.129 284.934 341.517 284.055 343.183 282.343C344.848 280.677 345.727 279.289 346.329 277.485C346.745 276.051 347.115 273.876 347.115 272.627C347.115 271.332 346.791 269.204 346.421 267.862C345.959 266.289 345.033 264.716 343.738 263.282C342.674 262.125 340.962 260.737 339.944 260.228C338.741 259.627 336.937 259.21 334.855 259.118C333.051 259.071 331.015 259.164 330.367 259.349C329.673 259.58 328.517 260.043 327.823 260.459ZM394.306 248.477C397.082 248.569 398.378 248.893 400.783 250.003C402.726 250.975 404.485 252.27 405.734 253.705C406.844 254.954 408.093 256.897 408.51 258.053C409.204 259.812 409.296 262.588 409.574 295.991H398.007L397.869 280.816C397.776 265.687 397.776 265.687 396.619 263.374C395.972 262.125 394.908 260.691 394.306 260.228C393.658 259.765 392.178 259.256 391.068 259.118C389.818 258.933 388.199 259.118 387.135 259.441C386.117 259.765 384.544 260.737 383.665 261.523C382.74 262.31 381.491 264.114 380.889 265.502C379.733 267.954 379.732 268.139 379.501 295.991H367.935V249.263H379.501L379.732 253.936L381.352 252.687C382.231 252.039 383.804 251.067 384.822 250.512C385.84 250.003 387.598 249.309 388.754 248.939C389.865 248.615 392.363 248.384 394.306 248.477ZM91.4981 249.217L103.527 276.837L115.556 249.217H121.201C124.3 249.217 126.891 249.356 126.891 249.494C126.891 249.587 122.589 259.673 117.314 271.794C112.086 283.962 107.552 294.372 107.275 294.927C106.812 295.899 106.396 295.991 103.527 295.991C100.612 295.991 100.196 295.899 99.7334 294.927C99.4558 294.372 94.9217 283.962 89.6937 271.794C84.4194 259.673 80.163 249.587 80.163 249.494C80.163 249.356 82.7076 249.217 91.4981 249.217ZM211.002 249.263H222.661L222.753 264.161C222.846 277.393 222.985 279.289 223.725 280.955C224.188 281.973 224.882 283.176 225.344 283.685C225.761 284.147 226.964 284.934 227.981 285.396C228.999 285.859 230.665 286.229 231.683 286.275C232.701 286.275 234.227 286.044 235.153 285.72C236.032 285.443 237.327 284.656 238.067 284.008C238.808 283.314 239.733 282.158 240.149 281.418C240.797 280.168 240.936 278.04 241.028 249.263H252.734L252.548 264.623C252.41 276.005 252.178 280.677 251.716 282.574C251.346 283.962 250.42 286.229 249.68 287.571C248.94 288.959 247.367 290.902 246.256 291.966C245.1 292.984 243.11 294.326 241.861 294.881C240.566 295.482 238.391 296.176 237.003 296.408C235.569 296.685 233.302 296.917 231.914 296.917C230.48 296.917 228.12 296.685 226.593 296.408C225.067 296.13 222.661 295.297 221.273 294.603C219.839 293.909 217.803 292.336 216.739 291.18C215.675 289.977 214.333 288.172 213.778 287.062C213.223 285.998 212.483 283.962 212.112 282.574C211.603 280.677 211.372 276.005 211.187 264.623L211.002 249.263ZM289.283 249.263H300.85V295.991H289.283V249.263Z" fill="black"/>
</svg>
