<svg width="772" height="230" viewBox="0 0 772 230" fill="none" xmlns="http://www.w3.org/2000/svg">
<path fill-rule="evenodd" clip-rule="evenodd" d="M114.488 40.0347C119.947 40.1272 123.556 40.4511 127.211 41.1913C130.033 41.7465 134.382 42.9494 136.926 43.8285C139.471 44.7075 143.311 46.3268 145.485 47.4372C147.66 48.5013 151.315 50.6758 153.582 52.2025C155.849 53.7293 159.319 56.3664 161.216 58.032C163.113 59.7438 165.981 62.6123 167.6 64.4629C169.22 66.2673 171.764 69.6909 173.337 71.9579C174.864 74.2249 177.085 78.0187 178.195 80.2857C179.352 82.5527 181.017 86.6241 181.896 89.3075C182.822 91.9909 183.932 96.1548 184.395 98.5606C184.904 100.966 185.413 105.871 185.551 109.433C185.737 113.366 185.644 117.761 185.32 120.537C185.043 123.081 184.256 127.338 183.608 130.021C182.961 132.705 181.619 136.961 180.647 139.506C179.629 142.05 177.733 146.029 176.437 148.296C175.142 150.563 172.921 154.033 171.487 155.93C170.099 157.827 167.23 161.158 165.195 163.286C163.113 165.414 159.782 168.468 157.746 170.041C155.71 171.66 152.055 174.112 149.649 175.547C147.244 176.981 143.496 178.878 141.322 179.803C139.147 180.682 135.723 181.931 133.688 182.533C131.652 183.134 128.09 184.013 125.823 184.476C122.769 185.077 119.345 185.262 112.868 185.309C106.391 185.309 102.921 185.077 99.6826 184.476C97.2768 184.013 92.8815 182.856 89.9668 181.885C87.0521 180.913 82.6568 179.109 80.251 177.906C77.8452 176.703 75.3006 175.315 73.3112 173.973L61.1434 181.746C49.577 189.102 48.9293 189.472 46.7085 189.472C45.2743 189.472 43.8863 189.149 43.0998 188.64C42.4058 188.223 41.4342 187.159 40.9253 186.326C40.0463 184.892 40 184.013 40 146.677C40 121.832 40.1851 107.073 40.5089 104.344C40.7865 102.077 41.573 97.9129 42.3133 95.0907C43.0073 92.2685 44.534 87.7345 45.7369 84.9123C46.8936 82.0901 48.9293 78.065 50.2247 75.8905C51.5201 73.716 53.7871 70.3849 55.2214 68.488C56.6556 66.5911 59.7091 63.1675 62.0224 60.8542C64.3357 58.5872 68.1757 55.3023 70.5815 53.5905C72.9873 51.8324 76.9199 49.4266 79.3257 48.1774C81.7315 46.9283 85.294 45.2627 87.1909 44.5225C89.0878 43.7822 92.8353 42.6256 95.5187 41.9316C98.2021 41.2839 101.811 40.5436 103.615 40.3123C105.42 40.0347 110.277 39.9422 114.488 40.0347ZM98.5259 67.5627C96.7678 68.1179 93.5293 69.5059 91.3548 70.6162C89.1803 71.7266 86.0805 73.6698 84.4149 74.9189C82.7494 76.1681 80.1585 78.4814 78.6317 80.1007C77.105 81.72 74.9768 84.3108 73.9589 85.8376C72.8948 87.3644 71.3218 90.094 70.4427 91.8521C69.5174 93.6102 68.2683 96.7563 67.6205 98.792C66.9728 100.828 66.1863 104.39 65.9087 106.657C65.5386 109.109 65.4461 112.718 65.5849 115.448C65.7699 117.992 66.3251 121.74 66.834 123.775C67.3429 125.811 68.4996 129.142 69.3786 131.178C70.3039 133.214 71.6919 135.989 72.5247 137.331C73.3112 138.673 75.2544 141.264 76.7811 143.114C78.3541 144.965 81.3614 147.88 83.4896 149.592C85.6641 151.303 88.9952 153.524 90.8921 154.496C92.789 155.467 95.8425 156.809 97.6006 157.457C99.405 158.058 102.829 158.937 105.234 159.354C107.64 159.77 111.064 160.094 112.868 160.094C114.673 160.094 118.004 159.77 120.271 159.4C122.538 158.983 125.776 158.243 127.442 157.688C129.107 157.179 132.068 155.93 134.058 154.958L137.62 153.154C144.421 154.958 146.827 155.467 147.336 155.467C147.845 155.467 149.048 155.097 149.973 154.681C150.899 154.218 152.055 153.2 152.518 152.46C152.981 151.72 153.351 150.378 153.351 149.545C153.351 148.759 152.888 146.353 152.379 144.271L151.407 140.431C154.368 135.388 155.849 132.52 156.589 130.715C157.329 128.911 158.394 125.58 158.949 123.313C159.828 119.889 160.013 117.946 159.967 112.44C159.967 106.796 159.782 105.038 158.81 101.337C158.162 98.9308 156.821 95.1832 155.803 93.0088C154.831 90.8343 153.073 87.7345 151.963 86.0689C150.806 84.4034 148.632 81.72 147.105 80.1007C145.578 78.4814 142.987 76.1681 141.322 74.9189C139.656 73.6698 136.556 71.7266 134.382 70.6162C132.207 69.5059 129.107 68.1642 127.442 67.6552C125.776 67.1 122.538 66.3598 120.271 65.9434C118.004 65.5733 114.441 65.2494 112.406 65.2957C110.37 65.342 107.131 65.6196 105.234 65.9434C103.338 66.221 100.33 66.9613 98.5259 67.5627Z" fill="#00BB75"/>
<path fill-rule="evenodd" clip-rule="evenodd" d="M720.225 84.167H731.791V147.088H720.225V84.167ZM480.338 81.5299C481.633 81.6687 483.16 82.1776 483.761 82.6402C484.363 83.1029 485.288 84.0745 485.843 84.7685C486.584 85.7863 486.815 86.7579 486.815 88.7936C486.815 90.8293 486.584 91.8471 485.843 92.8187C485.334 93.5127 484.178 94.623 483.299 95.1782C482.003 96.1035 481.309 96.2423 479.412 96.0573C478.163 95.9185 476.59 95.4095 475.942 94.9006C475.295 94.3917 474.369 93.4201 473.861 92.7724C473.167 91.8471 472.935 90.783 472.935 88.7936C472.935 86.7579 473.166 85.74 473.907 84.7685C474.416 84.0745 475.572 82.9641 476.451 82.4089C477.747 81.4836 478.441 81.3448 480.338 81.5299ZM374.158 82.3164H385.725V147.088H374.158V82.3164ZM450.959 83.2417H462.525V100.36H469.465V110.076H462.525V147.088H450.959V110.076H444.945V100.36H450.959V83.2417ZM225.646 84.167H259.882V95.7334H237.212V107.3H259.882V118.866H237.212V135.522H259.882V147.088H225.646V84.167ZM638.057 84.3983L650.225 115.396C656.887 132.468 662.393 146.533 662.393 146.764C662.393 146.949 659.663 147.042 650.179 146.857L645.043 133.625H619.134L613.999 146.857L607.892 146.996C602.294 147.088 601.785 147.042 601.97 146.302C602.062 145.839 607.475 131.821 614.045 115.165C620.569 98.5093 626.028 84.6759 626.167 84.4909C626.259 84.3058 628.989 84.2133 638.057 84.3983ZM623.668 121.735C623.576 121.92 627.37 122.105 632.089 122.105C638.751 122.105 640.602 121.966 640.463 121.503C640.37 121.226 638.473 116.46 636.253 111.001C634.032 105.542 632.181 101.008 632.135 100.961C632.089 100.915 630.192 105.449 627.925 111.094C625.612 116.738 623.715 121.503 623.668 121.735ZM672.201 84.0745L683.397 84.3058C691.818 84.4446 695.241 84.6759 697.323 85.2774C698.85 85.6938 701.21 86.7579 702.551 87.6369C703.939 88.6085 705.605 90.2741 706.576 91.7083C707.455 93.0037 708.519 95.4558 708.936 97.1214C709.445 99.1571 709.63 101.239 709.491 103.599C709.352 105.912 708.89 107.901 708.103 109.613C707.455 111.001 706.345 112.852 705.605 113.731C704.864 114.61 703.43 115.859 702.412 116.553C701.395 117.293 699.22 118.311 697.555 118.866C695.519 119.514 692.789 119.977 683.675 120.485V147.088H672.108L672.201 84.0745ZM683.675 108.919C692.373 108.456 693.992 108.179 695.102 107.531C695.935 107.022 696.953 105.958 697.323 105.125C697.693 104.293 698.017 102.951 698.017 102.118C698.017 101.285 697.601 99.9436 697.092 99.1108C696.583 98.278 695.473 97.2602 694.64 96.8438C693.668 96.3349 691.54 95.9647 688.486 95.8259L683.767 95.6409L683.675 108.919ZM340.893 99.4809C342.513 99.4346 345.242 99.7585 346.908 100.129C348.527 100.545 351.349 101.609 353.107 102.581C354.865 103.506 357.456 105.449 358.891 106.837C360.51 108.456 362.083 110.677 363.147 112.852C364.072 114.749 365.09 117.386 365.368 118.727C365.645 120.069 365.877 122.29 365.877 123.724C365.877 125.112 365.645 127.333 365.368 128.674C365.09 130.016 364.119 132.607 363.286 134.458C362.222 136.678 360.787 138.76 359.029 140.518C357.549 141.999 355.421 143.757 354.31 144.451C353.154 145.099 350.979 146.07 349.452 146.626C347.926 147.134 344.872 147.69 342.744 147.828C339.922 148.013 337.886 147.875 335.573 147.319C333.768 146.903 331.085 145.885 329.558 145.099C328.031 144.266 325.487 142.369 323.96 140.842C322.109 138.992 320.583 136.91 319.472 134.596C318.501 132.653 317.529 129.97 317.252 128.582C317.02 127.148 316.789 124.881 316.835 123.493C316.835 122.059 317.159 119.56 317.529 117.941C317.946 116.275 318.917 113.684 319.75 112.158C320.536 110.631 322.48 108.133 324.006 106.606C325.533 105.079 328.031 103.136 329.558 102.349C331.085 101.517 333.583 100.545 335.11 100.175C336.637 99.8048 339.228 99.4809 340.893 99.4809ZM335.018 111.556C334.277 111.926 332.797 113.268 331.686 114.517C330.484 115.905 329.466 117.663 329.049 119.098C328.679 120.347 328.355 122.429 328.355 123.724C328.355 124.973 328.679 127.055 329.049 128.351C329.466 129.739 330.484 131.543 331.686 132.931C332.797 134.134 334.555 135.568 335.573 136.077C336.591 136.586 338.673 137.141 340.199 137.234C342.142 137.419 343.715 137.234 345.52 136.632C347.324 136.031 348.712 135.152 350.378 133.44C352.043 131.774 352.922 130.386 353.524 128.582C353.94 127.148 354.31 124.973 354.31 123.724C354.31 122.429 353.986 120.3 353.616 118.959C353.154 117.386 352.228 115.813 350.933 114.378C349.869 113.222 348.157 111.834 347.139 111.325C345.936 110.723 344.132 110.307 342.05 110.215C340.246 110.168 338.21 110.261 337.562 110.446C336.868 110.677 335.712 111.14 335.018 111.556ZM518.553 99.4809C520.172 99.4346 522.902 99.7585 524.568 100.129C526.187 100.545 529.009 101.609 530.767 102.581C532.525 103.506 535.116 105.449 536.55 106.837C538.17 108.456 539.743 110.677 540.807 112.852C541.732 114.749 542.75 117.386 543.027 118.727C543.305 120.069 543.536 122.29 543.536 123.724C543.536 125.112 543.305 127.333 543.027 128.674C542.75 130.016 541.778 132.607 540.946 134.458C539.881 136.678 538.447 138.76 536.689 140.518C535.209 141.999 533.08 143.757 531.97 144.451C530.813 145.099 528.639 146.07 527.112 146.626C525.585 147.134 522.532 147.69 520.404 147.828C517.581 148.013 515.546 147.875 513.232 147.319C511.428 146.903 508.745 145.885 507.218 145.099C505.691 144.266 503.147 142.369 501.62 140.842C499.769 138.992 498.242 136.91 497.132 134.596C496.161 132.653 495.189 129.97 494.911 128.582C494.68 127.148 494.449 124.881 494.495 123.493C494.495 122.059 494.819 119.56 495.189 117.941C495.605 116.275 496.577 113.684 497.41 112.158C498.196 110.631 500.139 108.133 501.666 106.606C503.193 105.079 505.691 103.136 507.218 102.349C508.745 101.517 511.243 100.545 512.77 100.175C514.297 99.8048 516.887 99.4809 518.553 99.4809ZM512.677 111.556C511.937 111.926 510.457 113.268 509.346 114.517C508.143 115.905 507.125 117.663 506.709 119.098C506.339 120.347 506.015 122.429 506.015 123.724C506.015 124.973 506.339 127.055 506.709 128.351C507.125 129.739 508.143 131.543 509.346 132.931C510.457 134.134 512.215 135.568 513.232 136.077C514.25 136.586 516.332 137.141 517.859 137.234C519.802 137.419 521.375 137.234 523.18 136.632C524.984 136.031 526.372 135.152 528.037 133.44C529.703 131.774 530.582 130.386 531.184 128.582C531.6 127.148 531.97 124.973 531.97 123.724C531.97 122.429 531.646 120.3 531.276 118.959C530.813 117.386 529.888 115.813 528.593 114.378C527.529 113.222 525.817 111.834 524.799 111.325C523.596 110.723 521.792 110.307 519.71 110.215C517.905 110.168 515.87 110.261 515.222 110.446C514.528 110.677 513.371 111.14 512.677 111.556ZM579.161 99.5734C581.937 99.666 583.232 99.9898 585.638 101.1C587.581 102.072 589.339 103.367 590.589 104.801C591.699 106.051 592.948 107.994 593.364 109.15C594.058 110.909 594.151 113.684 594.429 147.088H582.862L582.723 131.913C582.631 116.784 582.631 116.784 581.474 114.471C580.826 113.222 579.762 111.788 579.161 111.325C578.513 110.862 577.033 110.353 575.922 110.215C574.673 110.029 573.054 110.215 571.99 110.538C570.972 110.862 569.399 111.834 568.52 112.62C567.594 113.407 566.345 115.211 565.744 116.599C564.587 119.051 564.587 119.236 564.356 147.088H552.79V100.36H564.356L564.587 105.033L566.207 103.784C567.086 103.136 568.659 102.164 569.676 101.609C570.694 101.1 572.452 100.406 573.609 100.036C574.719 99.7122 577.218 99.4809 579.161 99.5734ZM276.353 100.314L288.382 127.934L300.411 100.314H306.055C309.155 100.314 311.746 100.452 311.746 100.591C311.746 100.684 307.443 110.77 302.169 122.891C296.941 135.059 292.407 145.469 292.129 146.024C291.667 146.996 291.25 147.088 288.382 147.088C285.467 147.088 285.051 146.996 284.588 146.024C284.311 145.469 279.776 135.059 274.548 122.891C269.274 110.77 265.018 100.684 265.018 100.591C265.018 100.452 267.562 100.314 276.353 100.314ZM395.857 100.36H407.516L407.608 115.257C407.701 128.489 407.84 130.386 408.58 132.052C409.042 133.07 409.736 134.273 410.199 134.782C410.615 135.244 411.818 136.031 412.836 136.493C413.854 136.956 415.52 137.326 416.537 137.372C417.555 137.372 419.082 137.141 420.007 136.817C420.886 136.54 422.182 135.753 422.922 135.105C423.662 134.411 424.588 133.255 425.004 132.515C425.652 131.265 425.791 129.137 425.883 100.36H437.588L437.403 115.72C437.264 127.101 437.033 131.774 436.57 133.671C436.2 135.059 435.275 137.326 434.535 138.668C433.795 140.056 432.221 141.999 431.111 143.063C429.954 144.081 427.965 145.423 426.716 145.978C425.42 146.579 423.246 147.273 421.858 147.505C420.424 147.782 418.157 148.013 416.769 148.013C415.335 148.013 412.975 147.782 411.448 147.505C409.921 147.227 407.516 146.394 406.128 145.7C404.693 145.006 402.658 143.433 401.594 142.277C400.53 141.074 399.188 139.269 398.633 138.159C398.078 137.095 397.337 135.059 396.967 133.671C396.458 131.774 396.227 127.101 396.042 115.72L395.857 100.36ZM474.138 100.36H485.704V147.088H474.138V100.36Z" fill="#141414"/>
</svg>
