<svg width="588" height="337" viewBox="0 0 588 337" fill="none" xmlns="http://www.w3.org/2000/svg">
<path fill-rule="evenodd" clip-rule="evenodd" d="M295.528 40.4519C300.988 40.5445 304.596 40.8683 308.251 41.6086C311.074 42.1638 315.423 43.3667 317.967 44.2457C320.512 45.1248 324.352 46.7441 326.526 47.8544C328.701 48.9185 332.356 51.093 334.623 52.6198C336.89 54.1465 340.36 56.7837 342.257 58.4492C344.153 60.1611 347.022 63.0295 348.641 64.8802C350.26 66.6845 352.805 70.1082 354.378 72.3752C355.905 74.6422 358.126 78.436 359.236 80.703C360.393 82.97 362.058 87.0414 362.937 89.7248C363.863 92.4082 364.973 96.5721 365.436 98.9779C365.945 101.384 366.453 106.288 366.592 109.85C366.777 113.783 366.685 118.178 366.361 120.954C366.083 123.499 365.297 127.755 364.649 130.438C364.001 133.122 362.66 137.378 361.688 139.923C360.67 142.467 358.773 146.446 357.478 148.713C356.182 150.98 353.962 154.45 352.527 156.347C351.14 158.244 348.271 161.575 346.235 163.703C344.153 165.832 340.822 168.885 338.787 170.458C336.751 172.077 333.096 174.53 330.69 175.964C328.284 177.398 324.537 179.295 322.362 180.22C320.188 181.099 316.764 182.348 314.729 182.95C312.693 183.551 309.13 184.43 306.863 184.893C303.81 185.494 300.386 185.68 293.909 185.726C287.432 185.726 283.962 185.494 280.723 184.893C278.318 184.43 273.922 183.274 271.008 182.302C268.093 181.331 263.698 179.526 261.292 178.323C258.886 177.12 256.341 175.732 254.352 174.391L242.184 182.163C230.618 189.52 229.97 189.89 227.749 189.89C226.315 189.89 224.927 189.566 224.141 189.057C223.447 188.641 222.475 187.576 221.966 186.744C221.087 185.309 221.041 184.43 221.041 147.094C221.041 122.249 221.226 107.491 221.55 104.761C221.827 102.494 222.614 98.3301 223.354 95.5079C224.048 92.6857 225.575 88.1517 226.778 85.3295C227.934 82.5073 229.97 78.4822 231.265 76.3077C232.561 74.1333 234.828 70.8021 236.262 68.9053C237.696 67.0084 240.75 63.5847 243.063 61.2714C245.376 59.0044 249.217 55.7196 251.622 54.0077C254.028 52.2497 257.961 49.8438 260.366 48.5947C262.772 47.3455 266.335 45.6799 268.232 44.9397C270.129 44.1994 273.876 43.0428 276.559 42.3488C279.243 41.7011 282.852 40.9609 284.656 40.7295C286.46 40.4519 291.318 40.3594 295.528 40.4519ZM279.567 67.9799C277.809 68.5351 274.57 69.9231 272.396 71.0335C270.221 72.1438 267.121 74.087 265.456 75.3362C263.79 76.5853 261.199 78.8986 259.673 80.5179C258.146 82.1372 256.018 84.7281 255 86.2548C253.936 87.7816 252.363 90.5113 251.484 92.2694C250.558 94.0275 249.309 97.1735 248.661 99.2092C248.014 101.245 247.227 104.807 246.949 107.074C246.579 109.526 246.487 113.135 246.626 115.865C246.811 118.409 247.366 122.157 247.875 124.193C248.384 126.228 249.54 129.559 250.419 131.595C251.345 133.631 252.733 136.407 253.565 137.748C254.352 139.09 256.295 141.681 257.822 143.532C259.395 145.382 262.402 148.297 264.53 150.009C266.705 151.721 270.036 153.941 271.933 154.913C273.83 155.884 276.883 157.226 278.641 157.874C280.446 158.475 283.869 159.354 286.275 159.771C288.681 160.187 292.105 160.511 293.909 160.511C295.713 160.511 299.045 160.187 301.312 159.817C303.579 159.401 306.817 158.66 308.483 158.105C310.148 157.596 313.109 156.347 315.099 155.376L318.661 153.571C325.462 155.376 327.868 155.884 328.377 155.884C328.886 155.884 330.089 155.514 331.014 155.098C331.939 154.635 333.096 153.617 333.559 152.877C334.021 152.137 334.391 150.795 334.391 149.963C334.391 149.176 333.929 146.77 333.42 144.688L332.448 140.848C335.409 135.805 336.89 132.937 337.63 131.132C338.37 129.328 339.434 125.997 339.99 123.73C340.869 120.306 341.054 118.363 341.007 112.858C341.007 107.213 340.822 105.455 339.851 101.754C339.203 99.348 337.861 95.6005 336.843 93.426C335.872 91.2515 334.114 88.1517 333.003 86.4862C331.847 84.8206 329.672 82.1372 328.146 80.5179C326.619 78.8986 324.028 76.5853 322.362 75.3362C320.697 74.087 317.597 72.1438 315.423 71.0335C313.248 69.9231 310.148 68.5814 308.483 68.0725C306.817 67.5173 303.579 66.777 301.312 66.3606C299.045 65.9905 295.482 65.6667 293.446 65.7129C291.411 65.7592 288.172 66.0368 286.275 66.3606C284.378 66.6382 281.371 67.3785 279.567 67.9799Z" fill="#00BB75"/>
<path fill-rule="evenodd" clip-rule="evenodd" d="M535.37 232.598H546.936V295.519H535.37V232.598ZM295.483 229.961C296.778 230.099 298.305 230.608 298.907 231.071C299.508 231.534 300.433 232.505 300.989 233.199C301.729 234.217 301.96 235.189 301.96 237.224C301.96 239.26 301.729 240.278 300.989 241.249C300.48 241.943 299.323 243.054 298.444 243.609C297.148 244.534 296.454 244.673 294.558 244.488C293.308 244.349 291.735 243.84 291.088 243.331C290.44 242.822 289.515 241.851 289.006 241.203C288.312 240.278 288.08 239.214 288.08 237.224C288.08 235.189 288.312 234.171 289.052 233.199C289.561 232.505 290.718 231.395 291.597 230.84C292.892 229.914 293.586 229.775 295.483 229.961ZM189.303 230.747H200.87V295.519H189.303V230.747ZM266.104 231.672H277.671V248.791H284.611V258.506H277.671V295.519H266.104V258.506H260.09V248.791H266.104V231.672ZM40.791 232.598H75.0275V244.164H52.3574V255.73H75.0275V267.297H52.3574V283.952H75.0275V295.519H40.791V232.598ZM453.202 232.829L465.37 263.827C472.032 280.899 477.538 294.964 477.538 295.195C477.538 295.38 474.808 295.473 465.324 295.288L460.188 282.056H434.28L429.144 295.288L423.037 295.426C417.439 295.519 416.93 295.473 417.115 294.732C417.208 294.27 422.621 280.251 429.19 263.596C435.714 246.94 441.173 233.107 441.312 232.922C441.404 232.736 444.134 232.644 453.202 232.829ZM438.814 270.165C438.721 270.35 442.515 270.535 447.234 270.535C453.896 270.535 455.747 270.397 455.608 269.934C455.516 269.656 453.619 264.891 451.398 259.432C449.177 253.972 447.326 249.438 447.28 249.392C447.234 249.346 445.337 253.88 443.07 259.524C440.757 265.169 438.86 269.934 438.814 270.165ZM487.346 232.505L498.542 232.736C506.963 232.875 510.386 233.107 512.468 233.708C513.995 234.124 516.355 235.189 517.696 236.068C519.084 237.039 520.75 238.705 521.722 240.139C522.601 241.434 523.665 243.886 524.081 245.552C524.59 247.588 524.775 249.67 524.636 252.029C524.497 254.343 524.035 256.332 523.248 258.044C522.601 259.432 521.49 261.282 520.75 262.161C520.01 263.04 518.575 264.29 517.558 264.984C516.54 265.724 514.365 266.742 512.7 267.297C510.664 267.945 507.934 268.407 498.82 268.916V295.519H487.254L487.346 232.505ZM498.82 257.35C507.518 256.887 509.137 256.61 510.248 255.962C511.08 255.453 512.098 254.389 512.468 253.556C512.839 252.723 513.162 251.382 513.162 250.549C513.162 249.716 512.746 248.374 512.237 247.541C511.728 246.709 510.618 245.691 509.785 245.274C508.813 244.766 506.685 244.395 503.632 244.257L498.913 244.072L498.82 257.35ZM156.038 247.912C157.658 247.865 160.387 248.189 162.053 248.559C163.672 248.976 166.495 250.04 168.253 251.011C170.011 251.937 172.602 253.88 174.036 255.268C175.655 256.887 177.228 259.108 178.292 261.282C179.218 263.179 180.235 265.816 180.513 267.158C180.791 268.5 181.022 270.72 181.022 272.155C181.022 273.543 180.791 275.763 180.513 277.105C180.235 278.447 179.264 281.038 178.431 282.888C177.367 285.109 175.933 287.191 174.175 288.949C172.694 290.43 170.566 292.188 169.456 292.882C168.299 293.529 166.124 294.501 164.598 295.056C163.071 295.565 160.017 296.12 157.889 296.259C155.067 296.444 153.031 296.305 150.718 295.75C148.914 295.334 146.23 294.316 144.703 293.529C143.177 292.697 140.632 290.8 139.105 289.273C137.255 287.422 135.728 285.34 134.618 283.027C133.646 281.084 132.674 278.401 132.397 277.013C132.166 275.578 131.934 273.311 131.98 271.923C131.98 270.489 132.304 267.991 132.674 266.372C133.091 264.706 134.062 262.115 134.895 260.588C135.682 259.062 137.625 256.563 139.152 255.036C140.678 253.51 143.177 251.567 144.703 250.78C146.23 249.947 148.729 248.976 150.255 248.606C151.782 248.235 154.373 247.912 156.038 247.912ZM150.163 259.987C149.423 260.357 147.942 261.699 146.832 262.948C145.629 264.336 144.611 266.094 144.195 267.528C143.824 268.777 143.501 270.859 143.501 272.155C143.501 273.404 143.824 275.486 144.195 276.781C144.611 278.169 145.629 279.974 146.832 281.362C147.942 282.564 149.7 283.999 150.718 284.508C151.736 285.017 153.818 285.572 155.345 285.664C157.288 285.849 158.861 285.664 160.665 285.063C162.469 284.461 163.857 283.582 165.523 281.87C167.189 280.205 168.068 278.817 168.669 277.013C169.085 275.578 169.456 273.404 169.456 272.155C169.456 270.859 169.132 268.731 168.762 267.389C168.299 265.816 167.374 264.243 166.078 262.809C165.014 261.652 163.302 260.264 162.284 259.756C161.081 259.154 159.277 258.738 157.195 258.645C155.391 258.599 153.355 258.691 152.707 258.877C152.013 259.108 150.857 259.571 150.163 259.987ZM333.698 247.912C335.318 247.865 338.047 248.189 339.713 248.559C341.332 248.976 344.154 250.04 345.912 251.011C347.67 251.937 350.261 253.88 351.696 255.268C353.315 256.887 354.888 259.108 355.952 261.282C356.877 263.179 357.895 265.816 358.173 267.158C358.45 268.5 358.682 270.72 358.682 272.155C358.682 273.543 358.45 275.763 358.173 277.105C357.895 278.447 356.924 281.038 356.091 282.888C355.027 285.109 353.593 287.191 351.834 288.949C350.354 290.43 348.226 292.188 347.115 292.882C345.959 293.529 343.784 294.501 342.257 295.056C340.731 295.565 337.677 296.12 335.549 296.259C332.727 296.444 330.691 296.305 328.378 295.75C326.573 295.334 323.89 294.316 322.363 293.529C320.836 292.697 318.292 290.8 316.765 289.273C314.914 287.422 313.388 285.34 312.277 283.027C311.306 281.084 310.334 278.401 310.057 277.013C309.825 275.578 309.594 273.311 309.64 271.923C309.64 270.489 309.964 267.991 310.334 266.372C310.751 264.706 311.722 262.115 312.555 260.588C313.341 259.062 315.285 256.563 316.811 255.036C318.338 253.51 320.836 251.567 322.363 250.78C323.89 249.947 326.388 248.976 327.915 248.606C329.442 248.235 332.033 247.912 333.698 247.912ZM327.823 259.987C327.082 260.357 325.602 261.699 324.491 262.948C323.288 264.336 322.271 266.094 321.854 267.528C321.484 268.777 321.16 270.859 321.16 272.155C321.16 273.404 321.484 275.486 321.854 276.781C322.271 278.169 323.288 279.974 324.491 281.362C325.602 282.564 327.36 283.999 328.378 284.508C329.396 285.017 331.478 285.572 333.004 285.664C334.947 285.849 336.52 285.664 338.325 285.063C340.129 284.461 341.517 283.582 343.183 281.87C344.848 280.205 345.727 278.817 346.329 277.013C346.745 275.578 347.115 273.404 347.115 272.155C347.115 270.859 346.791 268.731 346.421 267.389C345.959 265.816 345.033 264.243 343.738 262.809C342.674 261.652 340.962 260.264 339.944 259.756C338.741 259.154 336.937 258.738 334.855 258.645C333.051 258.599 331.015 258.691 330.367 258.877C329.673 259.108 328.517 259.571 327.823 259.987ZM394.306 248.004C397.082 248.097 398.378 248.421 400.783 249.531C402.726 250.502 404.485 251.798 405.734 253.232C406.844 254.481 408.093 256.424 408.51 257.581C409.204 259.339 409.296 262.115 409.574 295.519H398.007L397.869 280.344C397.776 265.215 397.776 265.215 396.619 262.902C395.972 261.652 394.908 260.218 394.306 259.756C393.658 259.293 392.178 258.784 391.068 258.645C389.818 258.46 388.199 258.645 387.135 258.969C386.117 259.293 384.544 260.264 383.665 261.051C382.74 261.838 381.491 263.642 380.889 265.03C379.733 267.482 379.732 267.667 379.501 295.519H367.935V248.791H379.501L379.732 253.463L381.352 252.214C382.231 251.567 383.804 250.595 384.822 250.04C385.84 249.531 387.598 248.837 388.754 248.467C389.865 248.143 392.363 247.912 394.306 248.004ZM91.4981 248.744L103.527 276.365L115.556 248.744H121.201C124.3 248.744 126.891 248.883 126.891 249.022C126.891 249.114 122.589 259.2 117.314 271.322C112.086 283.49 107.552 293.9 107.275 294.455C106.812 295.426 106.396 295.519 103.527 295.519C100.612 295.519 100.196 295.426 99.7334 294.455C99.4558 293.9 94.9217 283.49 89.6937 271.322C84.4194 259.2 80.163 249.114 80.163 249.022C80.163 248.883 82.7076 248.744 91.4981 248.744ZM211.002 248.791H222.661L222.753 263.688C222.846 276.92 222.985 278.817 223.725 280.483C224.188 281.5 224.882 282.703 225.344 283.212C225.761 283.675 226.964 284.461 227.981 284.924C228.999 285.387 230.665 285.757 231.683 285.803C232.701 285.803 234.227 285.572 235.153 285.248C236.032 284.97 237.327 284.184 238.067 283.536C238.808 282.842 239.733 281.685 240.149 280.945C240.797 279.696 240.936 277.568 241.028 248.791H252.734L252.548 264.151C252.41 275.532 252.178 280.205 251.716 282.102C251.346 283.49 250.42 285.757 249.68 287.099C248.94 288.486 247.367 290.43 246.256 291.494C245.1 292.512 243.11 293.853 241.861 294.408C240.566 295.01 238.391 295.704 237.003 295.935C235.569 296.213 233.302 296.444 231.914 296.444C230.48 296.444 228.12 296.213 226.593 295.935C225.067 295.658 222.661 294.825 221.273 294.131C219.839 293.437 217.803 291.864 216.739 290.707C215.675 289.504 214.333 287.7 213.778 286.59C213.223 285.525 212.483 283.49 212.112 282.102C211.603 280.205 211.372 275.532 211.187 264.151L211.002 248.791ZM289.283 248.791H300.85V295.519H289.283V248.791Z" fill="#00BB75"/>
</svg>
