<svg width="588" height="337" viewBox="0 0 588 337" fill="none" xmlns="http://www.w3.org/2000/svg">
<path fill-rule="evenodd" clip-rule="evenodd" d="M295.528 40.5071C300.988 40.5996 304.596 40.9235 308.251 41.6638C311.074 42.2189 315.423 43.4218 317.967 44.3009C320.512 45.1799 324.352 46.7992 326.526 47.9096C328.701 48.9737 332.356 51.1482 334.623 52.675C336.89 54.2017 340.36 56.8389 342.257 58.5044C344.153 60.2162 347.022 63.0847 348.641 64.9353C350.26 66.7397 352.805 70.1633 354.378 72.4303C355.905 74.6974 358.126 78.4911 359.236 80.7581C360.393 83.0252 362.058 87.0965 362.937 89.7799C363.863 92.4633 364.973 96.6272 365.436 99.033C365.945 101.439 366.453 106.343 366.592 109.905C366.777 113.838 366.685 118.233 366.361 121.009C366.083 123.554 365.297 127.81 364.649 130.494C364.001 133.177 362.66 137.433 361.688 139.978C360.67 142.523 358.773 146.502 357.478 148.769C356.182 151.036 353.962 154.505 352.527 156.402C351.14 158.299 348.271 161.63 346.235 163.759C344.153 165.887 340.822 168.94 338.787 170.513C336.751 172.133 333.096 174.585 330.69 176.019C328.284 177.453 324.537 179.35 322.362 180.275C320.188 181.154 316.764 182.404 314.729 183.005C312.693 183.606 309.13 184.486 306.863 184.948C303.81 185.55 300.386 185.735 293.909 185.781C287.432 185.781 283.962 185.55 280.723 184.948C278.318 184.486 273.922 183.329 271.008 182.357C268.093 181.386 263.698 179.581 261.292 178.378C258.886 177.176 256.341 175.788 254.352 174.446L242.184 182.219C230.618 189.575 229.97 189.945 227.749 189.945C226.315 189.945 224.927 189.621 224.141 189.112C223.447 188.696 222.475 187.632 221.966 186.799C221.087 185.365 221.041 184.486 221.041 147.149C221.041 122.305 221.226 107.546 221.55 104.816C221.827 102.549 222.614 98.3853 223.354 95.5631C224.048 92.7409 225.575 88.2069 226.778 85.3847C227.934 82.5625 229.97 78.5374 231.265 76.3629C232.561 74.1884 234.828 70.8573 236.262 68.9604C237.696 67.0635 240.75 63.6399 243.063 61.3266C245.376 59.0596 249.217 55.7747 251.622 54.0629C254.028 52.3048 257.961 49.899 260.366 48.6498C262.772 47.4007 266.335 45.7351 268.232 44.9949C270.129 44.2546 273.876 43.098 276.559 42.404C279.243 41.7563 282.852 41.016 284.656 40.7847C286.46 40.5071 291.318 40.4146 295.528 40.5071ZM279.567 68.0351C277.809 68.5903 274.57 69.9783 272.396 71.0886C270.221 72.199 267.121 74.1422 265.456 75.3913C263.79 76.6405 261.199 78.9538 259.673 80.5731C258.146 82.1924 256.018 84.7832 255 86.31C253.936 87.8368 252.363 90.5664 251.484 92.3245C250.558 94.0826 249.309 97.2287 248.661 99.2644C248.014 101.3 247.227 104.862 246.949 107.13C246.579 109.582 246.487 113.19 246.626 115.92C246.811 118.465 247.366 122.212 247.875 124.248C248.384 126.283 249.54 129.615 250.419 131.65C251.345 133.686 252.733 136.462 253.565 137.804C254.352 139.145 256.295 141.736 257.822 143.587C259.395 145.437 262.402 148.352 264.53 150.064C266.705 151.776 270.036 153.997 271.933 154.968C273.83 155.94 276.883 157.281 278.641 157.929C280.446 158.531 283.869 159.41 286.275 159.826C288.681 160.242 292.105 160.566 293.909 160.566C295.713 160.566 299.045 160.242 301.312 159.872C303.579 159.456 306.817 158.716 308.483 158.16C310.148 157.651 313.109 156.402 315.099 155.431L318.661 153.626C325.462 155.431 327.868 155.94 328.377 155.94C328.886 155.94 330.089 155.57 331.014 155.153C331.939 154.69 333.096 153.673 333.559 152.932C334.021 152.192 334.391 150.85 334.391 150.018C334.391 149.231 333.929 146.825 333.42 144.743L332.448 140.903C335.409 135.86 336.89 132.992 337.63 131.188C338.37 129.383 339.434 126.052 339.99 123.785C340.869 120.361 341.054 118.418 341.007 112.913C341.007 107.268 340.822 105.51 339.851 101.809C339.203 99.4032 337.861 95.6557 336.843 93.4812C335.872 91.3067 334.114 88.2069 333.003 86.5413C331.847 84.8758 329.672 82.1924 328.146 80.5731C326.619 78.9538 324.028 76.6405 322.362 75.3913C320.697 74.1422 317.597 72.199 315.423 71.0886C313.248 69.9783 310.148 68.6366 308.483 68.1276C306.817 67.5725 303.579 66.8322 301.312 66.4158C299.045 66.0457 295.482 65.7218 293.446 65.7681C291.411 65.8144 288.172 66.092 286.275 66.4158C284.378 66.6934 281.371 67.4337 279.567 68.0351Z" fill="#00BB75"/>
<path fill-rule="evenodd" clip-rule="evenodd" d="M535.37 232.653H546.936V295.574H535.37V232.653ZM295.483 230.016C296.778 230.155 298.305 230.664 298.907 231.126C299.508 231.589 300.433 232.56 300.989 233.254C301.729 234.272 301.96 235.244 301.96 237.279C301.96 239.315 301.729 240.333 300.989 241.305C300.48 241.999 299.323 243.109 298.444 243.664C297.148 244.589 296.454 244.728 294.558 244.543C293.308 244.404 291.735 243.895 291.088 243.387C290.44 242.878 289.515 241.906 289.006 241.258C288.312 240.333 288.08 239.269 288.08 237.279C288.08 235.244 288.312 234.226 289.052 233.254C289.561 232.56 290.718 231.45 291.597 230.895C292.892 229.97 293.586 229.831 295.483 230.016ZM189.303 230.802H200.87V295.574H189.303V230.802ZM266.104 231.728H277.671V248.846H284.611V258.562H277.671V295.574H266.104V258.562H260.09V248.846H266.104V231.728ZM40.791 232.653H75.0275V244.219H52.3574V255.786H75.0275V267.352H52.3574V284.008H75.0275V295.574H40.791V232.653ZM453.202 232.884L465.37 263.882C472.032 280.954 477.538 295.019 477.538 295.25C477.538 295.435 474.808 295.528 465.324 295.343L460.188 282.111H434.28L429.144 295.343L423.037 295.482C417.439 295.574 416.93 295.528 417.115 294.788C417.208 294.325 422.621 280.306 429.19 263.651C435.714 246.995 441.173 233.162 441.312 232.977C441.404 232.792 444.134 232.699 453.202 232.884ZM438.814 270.221C438.721 270.406 442.515 270.591 447.234 270.591C453.896 270.591 455.747 270.452 455.608 269.989C455.516 269.712 453.619 264.946 451.398 259.487C449.177 254.028 447.326 249.494 447.28 249.447C447.234 249.401 445.337 253.935 443.07 259.579C440.757 265.224 438.86 269.989 438.814 270.221ZM487.346 232.56L498.542 232.792C506.963 232.931 510.386 233.162 512.468 233.763C513.995 234.18 516.355 235.244 517.696 236.123C519.084 237.094 520.75 238.76 521.722 240.194C522.601 241.49 523.665 243.942 524.081 245.607C524.59 247.643 524.775 249.725 524.636 252.084C524.497 254.398 524.035 256.387 523.248 258.099C522.601 259.487 521.49 261.338 520.75 262.217C520.01 263.096 518.575 264.345 517.558 265.039C516.54 265.779 514.365 266.797 512.7 267.352C510.664 268 507.934 268.462 498.82 268.971V295.574H487.254L487.346 232.56ZM498.82 257.405C507.518 256.942 509.137 256.665 510.248 256.017C511.08 255.508 512.098 254.444 512.468 253.611C512.839 252.778 513.162 251.437 513.162 250.604C513.162 249.771 512.746 248.429 512.237 247.597C511.728 246.764 510.618 245.746 509.785 245.33C508.813 244.821 506.685 244.451 503.632 244.312L498.913 244.127L498.82 257.405ZM156.038 247.967C157.658 247.921 160.387 248.244 162.053 248.615C163.672 249.031 166.495 250.095 168.253 251.067C170.011 251.992 172.602 253.935 174.036 255.323C175.655 256.942 177.228 259.163 178.292 261.338C179.218 263.234 180.235 265.872 180.513 267.213C180.791 268.555 181.022 270.776 181.022 272.21C181.022 273.598 180.791 275.819 180.513 277.16C180.235 278.502 179.264 281.093 178.431 282.944C177.367 285.164 175.933 287.246 174.175 289.004C172.694 290.485 170.566 292.243 169.456 292.937C168.299 293.585 166.124 294.556 164.598 295.111C163.071 295.62 160.017 296.176 157.889 296.314C155.067 296.499 153.031 296.361 150.718 295.805C148.914 295.389 146.23 294.371 144.703 293.585C143.177 292.752 140.632 290.855 139.105 289.328C137.255 287.478 135.728 285.396 134.618 283.082C133.646 281.139 132.674 278.456 132.397 277.068C132.166 275.634 131.934 273.367 131.98 271.979C131.98 270.544 132.304 268.046 132.674 266.427C133.091 264.761 134.062 262.17 134.895 260.644C135.682 259.117 137.625 256.618 139.152 255.092C140.678 253.565 143.177 251.622 144.703 250.835C146.23 250.003 148.729 249.031 150.255 248.661C151.782 248.291 154.373 247.967 156.038 247.967ZM150.163 260.042C149.423 260.412 147.942 261.754 146.832 263.003C145.629 264.391 144.611 266.149 144.195 267.583C143.824 268.833 143.501 270.915 143.501 272.21C143.501 273.459 143.824 275.541 144.195 276.837C144.611 278.224 145.629 280.029 146.832 281.417C147.942 282.62 149.7 284.054 150.718 284.563C151.736 285.072 153.818 285.627 155.345 285.72C157.288 285.905 158.861 285.72 160.665 285.118C162.469 284.517 163.857 283.638 165.523 281.926C167.189 280.26 168.068 278.872 168.669 277.068C169.085 275.634 169.456 273.459 169.456 272.21C169.456 270.915 169.132 268.786 168.762 267.445C168.299 265.872 167.374 264.299 166.078 262.864C165.014 261.708 163.302 260.32 162.284 259.811C161.081 259.209 159.277 258.793 157.195 258.7C155.391 258.654 153.355 258.747 152.707 258.932C152.013 259.163 150.857 259.626 150.163 260.042ZM333.698 247.967C335.318 247.921 338.047 248.244 339.713 248.615C341.332 249.031 344.154 250.095 345.912 251.067C347.67 251.992 350.261 253.935 351.696 255.323C353.315 256.942 354.888 259.163 355.952 261.338C356.877 263.234 357.895 265.872 358.173 267.213C358.45 268.555 358.682 270.776 358.682 272.21C358.682 273.598 358.45 275.819 358.173 277.16C357.895 278.502 356.924 281.093 356.091 282.944C355.027 285.164 353.593 287.246 351.834 289.004C350.354 290.485 348.226 292.243 347.115 292.937C345.959 293.585 343.784 294.556 342.257 295.111C340.731 295.62 337.677 296.176 335.549 296.314C332.727 296.499 330.691 296.361 328.378 295.805C326.573 295.389 323.89 294.371 322.363 293.585C320.836 292.752 318.292 290.855 316.765 289.328C314.914 287.478 313.388 285.396 312.277 283.082C311.306 281.139 310.334 278.456 310.057 277.068C309.825 275.634 309.594 273.367 309.64 271.979C309.64 270.544 309.964 268.046 310.334 266.427C310.751 264.761 311.722 262.17 312.555 260.644C313.341 259.117 315.285 256.618 316.811 255.092C318.338 253.565 320.836 251.622 322.363 250.835C323.89 250.003 326.388 249.031 327.915 248.661C329.442 248.291 332.033 247.967 333.698 247.967ZM327.823 260.042C327.082 260.412 325.602 261.754 324.491 263.003C323.288 264.391 322.271 266.149 321.854 267.583C321.484 268.833 321.16 270.915 321.16 272.21C321.16 273.459 321.484 275.541 321.854 276.837C322.271 278.224 323.288 280.029 324.491 281.417C325.602 282.62 327.36 284.054 328.378 284.563C329.396 285.072 331.478 285.627 333.004 285.72C334.947 285.905 336.52 285.72 338.325 285.118C340.129 284.517 341.517 283.638 343.183 281.926C344.848 280.26 345.727 278.872 346.329 277.068C346.745 275.634 347.115 273.459 347.115 272.21C347.115 270.915 346.791 268.786 346.421 267.445C345.959 265.872 345.033 264.299 343.738 262.864C342.674 261.708 340.962 260.32 339.944 259.811C338.741 259.209 336.937 258.793 334.855 258.7C333.051 258.654 331.015 258.747 330.367 258.932C329.673 259.163 328.517 259.626 327.823 260.042ZM394.306 248.059C397.082 248.152 398.378 248.476 400.783 249.586C402.726 250.558 404.485 251.853 405.734 253.287C406.844 254.537 408.093 256.48 408.51 257.636C409.204 259.394 409.296 262.17 409.574 295.574H398.007L397.869 280.399C397.776 265.27 397.776 265.27 396.619 262.957C395.972 261.708 394.908 260.273 394.306 259.811C393.658 259.348 392.178 258.839 391.068 258.7C389.818 258.515 388.199 258.7 387.135 259.024C386.117 259.348 384.544 260.32 383.665 261.106C382.74 261.893 381.491 263.697 380.889 265.085C379.733 267.537 379.732 267.722 379.501 295.574H367.935V248.846H379.501L379.732 253.519L381.352 252.27C382.231 251.622 383.804 250.65 384.822 250.095C385.84 249.586 387.598 248.892 388.754 248.522C389.865 248.198 392.363 247.967 394.306 248.059ZM91.4981 248.8L103.527 276.42L115.556 248.8H121.201C124.3 248.8 126.891 248.938 126.891 249.077C126.891 249.17 122.589 259.256 117.314 271.377C112.086 283.545 107.552 293.955 107.275 294.51C106.812 295.482 106.396 295.574 103.527 295.574C100.612 295.574 100.196 295.482 99.7334 294.51C99.4558 293.955 94.9217 283.545 89.6937 271.377C84.4194 259.256 80.163 249.17 80.163 249.077C80.163 248.938 82.7076 248.8 91.4981 248.8ZM211.002 248.846H222.661L222.753 263.743C222.846 276.975 222.985 278.872 223.725 280.538C224.188 281.556 224.882 282.759 225.344 283.267C225.761 283.73 226.964 284.517 227.981 284.979C228.999 285.442 230.665 285.812 231.683 285.858C232.701 285.858 234.227 285.627 235.153 285.303C236.032 285.026 237.327 284.239 238.067 283.591C238.808 282.897 239.733 281.741 240.149 281C240.797 279.751 240.936 277.623 241.028 248.846H252.734L252.548 264.206C252.41 275.587 252.178 280.26 251.716 282.157C251.346 283.545 250.42 285.812 249.68 287.154C248.94 288.542 247.367 290.485 246.256 291.549C245.1 292.567 243.11 293.909 241.861 294.464C240.566 295.065 238.391 295.759 237.003 295.99C235.569 296.268 233.302 296.499 231.914 296.499C230.48 296.499 228.12 296.268 226.593 295.99C225.067 295.713 222.661 294.88 221.273 294.186C219.839 293.492 217.803 291.919 216.739 290.762C215.675 289.56 214.333 287.755 213.778 286.645C213.223 285.581 212.483 283.545 212.112 282.157C211.603 280.26 211.372 275.587 211.187 264.206L211.002 248.846ZM289.283 248.846H300.85V295.574H289.283V248.846Z" fill="#E4E4E4"/>
</svg>
