<svg width="772" height="230" viewBox="0 0 772 230" fill="none" xmlns="http://www.w3.org/2000/svg">
<path fill-rule="evenodd" clip-rule="evenodd" d="M114.488 40.5072C119.947 40.5997 123.556 40.9236 127.211 41.6638C130.033 42.219 134.382 43.4219 136.926 44.3009C139.471 45.18 143.311 46.7993 145.485 47.9097C147.66 48.9738 151.315 51.1483 153.582 52.675C155.849 54.2018 159.319 56.8389 161.216 58.5045C163.113 60.2163 165.981 63.0848 167.6 64.9354C169.22 66.7397 171.764 70.1634 173.337 72.4304C174.864 74.6974 177.085 78.4912 178.195 80.7582C179.352 83.0252 181.017 87.0966 181.896 89.78C182.822 92.4634 183.932 96.6273 184.395 99.0331C184.904 101.439 185.413 106.343 185.551 109.906C185.737 113.838 185.644 118.233 185.32 121.009C185.043 123.554 184.256 127.81 183.608 130.494C182.961 133.177 181.619 137.434 180.647 139.978C179.629 142.523 177.733 146.502 176.437 148.769C175.142 151.036 172.921 154.506 171.487 156.402C170.099 158.299 167.23 161.63 165.195 163.759C163.113 165.887 159.782 168.94 157.746 170.513C155.71 172.133 152.055 174.585 149.649 176.019C147.244 177.453 143.496 179.35 141.322 180.275C139.147 181.154 135.723 182.404 133.688 183.005C131.652 183.607 128.09 184.486 125.823 184.948C122.769 185.55 119.345 185.735 112.868 185.781C106.391 185.781 102.921 185.55 99.6826 184.948C97.2768 184.486 92.8815 183.329 89.9668 182.357C87.0521 181.386 82.6568 179.581 80.251 178.379C77.8452 177.176 75.3006 175.788 73.3112 174.446L61.1434 182.219C49.577 189.575 48.9293 189.945 46.7085 189.945C45.2743 189.945 43.8863 189.621 43.0998 189.112C42.4058 188.696 41.4342 187.632 40.9253 186.799C40.0463 185.365 40 184.486 40 147.149C40 122.305 40.1851 107.546 40.5089 104.816C40.7865 102.549 41.573 98.3854 42.3133 95.5632C43.0073 92.741 44.534 88.207 45.7369 85.3848C46.8936 82.5626 48.9293 78.5375 50.2247 76.363C51.5201 74.1885 53.7871 70.8574 55.2214 68.9605C56.6556 67.0636 59.7091 63.64 62.0224 61.3267C64.3357 59.0597 68.1757 55.7748 70.5815 54.063C72.9873 52.3049 76.9199 49.8991 79.3257 48.6499C81.7315 47.4007 85.294 45.7352 87.1909 44.9949C89.0878 44.2547 92.8353 43.098 95.5187 42.4041C98.2021 41.7563 101.811 41.0161 103.615 40.7848C105.42 40.5072 110.277 40.4146 114.488 40.5072ZM98.5259 68.0352C96.7678 68.5904 93.5293 69.9783 91.3548 71.0887C89.1803 72.1991 86.0805 74.1422 84.4149 75.3914C82.7494 76.6406 80.1585 78.9539 78.6317 80.5731C77.105 82.1924 74.9768 84.7833 73.9589 86.3101C72.8948 87.8368 71.3218 90.5665 70.4427 92.3246C69.5174 94.0827 68.2683 97.2287 67.6205 99.2644C66.9728 101.3 66.1863 104.863 65.9087 107.13C65.5386 109.582 65.4461 113.19 65.5849 115.92C65.7699 118.465 66.3251 122.212 66.834 124.248C67.3429 126.284 68.4996 129.615 69.3786 131.65C70.3039 133.686 71.6919 136.462 72.5247 137.804C73.3112 139.145 75.2544 141.736 76.7811 143.587C78.3541 145.437 81.3614 148.352 83.4896 150.064C85.6641 151.776 88.9952 153.997 90.8921 154.968C92.789 155.94 95.8425 157.281 97.6006 157.929C99.405 158.531 102.829 159.41 105.234 159.826C107.64 160.242 111.064 160.566 112.868 160.566C114.673 160.566 118.004 160.242 120.271 159.872C122.538 159.456 125.776 158.716 127.442 158.16C129.107 157.652 132.068 156.402 134.058 155.431L137.62 153.626C144.421 155.431 146.827 155.94 147.336 155.94C147.845 155.94 149.048 155.57 149.973 155.153C150.899 154.691 152.055 153.673 152.518 152.932C152.981 152.192 153.351 150.851 153.351 150.018C153.351 149.231 152.888 146.825 152.379 144.743L151.407 140.903C154.368 135.86 155.849 132.992 156.589 131.188C157.329 129.383 158.394 126.052 158.949 123.785C159.828 120.362 160.013 118.418 159.967 112.913C159.967 107.268 159.782 105.51 158.81 101.809C158.162 99.4032 156.821 95.6557 155.803 93.4812C154.831 91.3068 153.073 88.207 151.963 86.5414C150.806 84.8758 148.632 82.1924 147.105 80.5731C145.578 78.9539 142.987 76.6406 141.322 75.3914C139.656 74.1422 136.556 72.1991 134.382 71.0887C132.207 69.9783 129.107 68.6366 127.442 68.1277C125.776 67.5725 122.538 66.8323 120.271 66.4159C118.004 66.0458 114.441 65.7219 112.406 65.7682C110.37 65.8144 107.131 66.092 105.234 66.4159C103.338 66.6935 100.33 67.4337 98.5259 68.0352Z" fill="#00BB75"/>
<path fill-rule="evenodd" clip-rule="evenodd" d="M720.225 84.6395H731.791V147.561H720.225V84.6395ZM480.338 82.0024C481.633 82.1412 483.16 82.6501 483.761 83.1127C484.363 83.5754 485.288 84.547 485.843 85.2409C486.584 86.2588 486.815 87.2304 486.815 89.2661C486.815 91.3017 486.584 92.3196 485.843 93.2912C485.334 93.9851 484.178 95.0955 483.299 95.6507C482.003 96.576 481.309 96.7148 479.412 96.5297C478.163 96.3909 476.59 95.882 475.942 95.3731C475.295 94.8642 474.369 93.8926 473.861 93.2449C473.167 92.3196 472.935 91.2555 472.935 89.2661C472.935 87.2304 473.166 86.2125 473.907 85.2409C474.416 84.547 475.572 83.4366 476.451 82.8814C477.747 81.9561 478.441 81.8173 480.338 82.0024ZM374.158 82.7889H385.725V147.561H374.158V82.7889ZM450.959 83.7142H462.525V100.832H469.465V110.548H462.525V147.561H450.959V110.548H444.945V100.832H450.959V83.7142ZM225.646 84.6395H259.882V96.2059H237.212V107.772H259.882V119.339H237.212V135.994H259.882V147.561H225.646V84.6395ZM638.057 84.8708L650.225 115.869C656.887 132.941 662.393 147.005 662.393 147.237C662.393 147.422 659.663 147.514 650.179 147.329L645.043 134.097H619.134L613.999 147.329L607.892 147.468C602.294 147.561 601.785 147.514 601.97 146.774C602.062 146.311 607.475 132.293 614.045 115.637C620.569 98.9818 626.028 85.1484 626.167 84.9634C626.259 84.7783 628.989 84.6858 638.057 84.8708ZM623.668 122.207C623.576 122.392 627.37 122.577 632.089 122.577C638.751 122.577 640.602 122.438 640.463 121.976C640.37 121.698 638.473 116.933 636.253 111.474C634.032 106.014 632.181 101.48 632.135 101.434C632.089 101.388 630.192 105.922 627.925 111.566C625.612 117.21 623.715 121.976 623.668 122.207ZM672.201 84.547L683.397 84.7783C691.818 84.9171 695.241 85.1484 697.323 85.7499C698.85 86.1663 701.21 87.2304 702.551 88.1094C703.939 89.081 705.605 90.7465 706.576 92.1808C707.455 93.4762 708.519 95.9283 708.936 97.5939C709.445 99.6295 709.63 101.711 709.491 104.071C709.352 106.384 708.89 108.374 708.103 110.086C707.455 111.474 706.345 113.324 705.605 114.203C704.864 115.082 703.43 116.331 702.412 117.025C701.395 117.766 699.22 118.783 697.555 119.339C695.519 119.986 692.789 120.449 683.675 120.958V147.561H672.108L672.201 84.547ZM683.675 109.392C692.373 108.929 693.992 108.651 695.102 108.004C695.935 107.495 696.953 106.431 697.323 105.598C697.693 104.765 698.017 103.423 698.017 102.591C698.017 101.758 697.601 100.416 697.092 99.5833C696.583 98.7505 695.473 97.7326 694.64 97.3163C693.668 96.8073 691.54 96.4372 688.486 96.2984L683.767 96.1134L683.675 109.392ZM340.893 99.9534C342.513 99.9071 345.242 100.231 346.908 100.601C348.527 101.018 351.349 102.082 353.107 103.053C354.865 103.978 357.456 105.922 358.891 107.31C360.51 108.929 362.083 111.15 363.147 113.324C364.072 115.221 365.09 117.858 365.368 119.2C365.645 120.542 365.877 122.762 365.877 124.197C365.877 125.585 365.645 127.805 365.368 129.147C365.09 130.489 364.119 133.08 363.286 134.93C362.222 137.151 360.787 139.233 359.029 140.991C357.549 142.471 355.421 144.23 354.31 144.924C353.154 145.571 350.979 146.543 349.452 147.098C347.926 147.607 344.872 148.162 342.744 148.301C339.922 148.486 337.886 148.347 335.573 147.792C333.768 147.376 331.085 146.358 329.558 145.571C328.031 144.738 325.487 142.842 323.96 141.315C322.109 139.464 320.583 137.382 319.472 135.069C318.501 133.126 317.529 130.442 317.252 129.054C317.02 127.62 316.789 125.353 316.835 123.965C316.835 122.531 317.159 120.033 317.529 118.413C317.946 116.748 318.917 114.157 319.75 112.63C320.536 111.103 322.48 108.605 324.006 107.078C325.533 105.552 328.031 103.608 329.558 102.822C331.085 101.989 333.583 101.018 335.11 100.647C336.637 100.277 339.228 99.9534 340.893 99.9534ZM335.018 112.029C334.277 112.399 332.797 113.741 331.686 114.99C330.484 116.378 329.466 118.136 329.049 119.57C328.679 120.819 328.355 122.901 328.355 124.197C328.355 125.446 328.679 127.528 329.049 128.823C329.466 130.211 330.484 132.015 331.686 133.403C332.797 134.606 334.555 136.041 335.573 136.549C336.591 137.058 338.673 137.614 340.199 137.706C342.142 137.891 343.715 137.706 345.52 137.105C347.324 136.503 348.712 135.624 350.378 133.912C352.043 132.247 352.922 130.859 353.524 129.054C353.94 127.62 354.31 125.446 354.31 124.197C354.31 122.901 353.986 120.773 353.616 119.431C353.154 117.858 352.228 116.285 350.933 114.851C349.869 113.694 348.157 112.306 347.139 111.797C345.936 111.196 344.132 110.78 342.05 110.687C340.246 110.641 338.21 110.733 337.562 110.918C336.868 111.15 335.712 111.612 335.018 112.029ZM518.553 99.9534C520.172 99.9071 522.902 100.231 524.568 100.601C526.187 101.018 529.009 102.082 530.767 103.053C532.525 103.978 535.116 105.922 536.55 107.31C538.17 108.929 539.743 111.15 540.807 113.324C541.732 115.221 542.75 117.858 543.027 119.2C543.305 120.542 543.536 122.762 543.536 124.197C543.536 125.585 543.305 127.805 543.027 129.147C542.75 130.489 541.778 133.08 540.946 134.93C539.881 137.151 538.447 139.233 536.689 140.991C535.209 142.471 533.08 144.23 531.97 144.924C530.813 145.571 528.639 146.543 527.112 147.098C525.585 147.607 522.532 148.162 520.404 148.301C517.581 148.486 515.546 148.347 513.232 147.792C511.428 147.376 508.745 146.358 507.218 145.571C505.691 144.738 503.147 142.842 501.62 141.315C499.769 139.464 498.242 137.382 497.132 135.069C496.161 133.126 495.189 130.442 494.911 129.054C494.68 127.62 494.449 125.353 494.495 123.965C494.495 122.531 494.819 120.033 495.189 118.413C495.605 116.748 496.577 114.157 497.41 112.63C498.196 111.103 500.139 108.605 501.666 107.078C503.193 105.552 505.691 103.608 507.218 102.822C508.745 101.989 511.243 101.018 512.77 100.647C514.297 100.277 516.887 99.9534 518.553 99.9534ZM512.677 112.029C511.937 112.399 510.457 113.741 509.346 114.99C508.143 116.378 507.125 118.136 506.709 119.57C506.339 120.819 506.015 122.901 506.015 124.197C506.015 125.446 506.339 127.528 506.709 128.823C507.125 130.211 508.143 132.015 509.346 133.403C510.457 134.606 512.215 136.041 513.232 136.549C514.25 137.058 516.332 137.614 517.859 137.706C519.802 137.891 521.375 137.706 523.18 137.105C524.984 136.503 526.372 135.624 528.037 133.912C529.703 132.247 530.582 130.859 531.184 129.054C531.6 127.62 531.97 125.446 531.97 124.197C531.97 122.901 531.646 120.773 531.276 119.431C530.813 117.858 529.888 116.285 528.593 114.851C527.529 113.694 525.817 112.306 524.799 111.797C523.596 111.196 521.792 110.78 519.71 110.687C517.905 110.641 515.87 110.733 515.222 110.918C514.528 111.15 513.371 111.612 512.677 112.029ZM579.161 100.046C581.937 100.138 583.232 100.462 585.638 101.573C587.581 102.544 589.339 103.84 590.589 105.274C591.699 106.523 592.948 108.466 593.364 109.623C594.058 111.381 594.151 114.157 594.429 147.561H582.862L582.723 132.386C582.631 117.257 582.631 117.257 581.474 114.943C580.826 113.694 579.762 112.26 579.161 111.797C578.513 111.335 577.033 110.826 575.922 110.687C574.673 110.502 573.054 110.687 571.99 111.011C570.972 111.335 569.399 112.306 568.52 113.093C567.594 113.879 566.345 115.684 565.744 117.072C564.587 119.524 564.587 119.709 564.356 147.561H552.79V100.832H564.356L564.587 105.505L566.207 104.256C567.086 103.608 568.659 102.637 569.676 102.082C570.694 101.573 572.452 100.879 573.609 100.509C574.719 100.185 577.218 99.9534 579.161 100.046ZM276.353 100.786L288.382 128.407L300.411 100.786H306.055C309.155 100.786 311.746 100.925 311.746 101.064C311.746 101.156 307.443 111.242 302.169 123.364C296.941 135.532 292.407 145.941 292.129 146.497C291.667 147.468 291.25 147.561 288.382 147.561C285.467 147.561 285.051 147.468 284.588 146.497C284.311 145.941 279.776 135.532 274.548 123.364C269.274 111.242 265.018 101.156 265.018 101.064C265.018 100.925 267.562 100.786 276.353 100.786ZM395.857 100.832H407.516L407.608 115.73C407.701 128.962 407.84 130.859 408.58 132.524C409.042 133.542 409.736 134.745 410.199 135.254C410.615 135.717 411.818 136.503 412.836 136.966C413.854 137.428 415.52 137.799 416.537 137.845C417.555 137.845 419.082 137.614 420.007 137.29C420.886 137.012 422.182 136.226 422.922 135.578C423.662 134.884 424.588 133.727 425.004 132.987C425.652 131.738 425.791 129.61 425.883 100.832H437.588L437.403 116.193C437.264 127.574 437.033 132.247 436.57 134.144C436.2 135.532 435.275 137.799 434.535 139.14C433.795 140.528 432.221 142.471 431.111 143.536C429.954 144.553 427.965 145.895 426.716 146.45C425.42 147.052 423.246 147.746 421.858 147.977C420.424 148.255 418.157 148.486 416.769 148.486C415.335 148.486 412.975 148.255 411.448 147.977C409.921 147.699 407.516 146.867 406.128 146.173C404.693 145.479 402.658 143.906 401.594 142.749C400.53 141.546 399.188 139.742 398.633 138.631C398.078 137.567 397.337 135.532 396.967 134.144C396.458 132.247 396.227 127.574 396.042 116.193L395.857 100.832ZM474.138 100.832H485.704V147.561H474.138V100.832Z" fill="#E4E4E4"/>
</svg>
