<svg width="588" height="337" viewBox="0 0 588 337" fill="none" xmlns="http://www.w3.org/2000/svg">
<path fill-rule="evenodd" clip-rule="evenodd" d="M295.528 40.9795C300.988 41.0721 304.596 41.3959 308.251 42.1362C311.074 42.6913 315.423 43.8943 317.967 44.7733C320.512 45.6523 324.352 47.2716 326.526 48.382C328.701 49.4461 332.356 51.6206 334.623 53.1474C336.89 54.6741 340.36 57.3113 342.257 58.9768C344.153 60.6887 347.022 63.5571 348.641 65.4077C350.26 67.2121 352.805 70.6357 354.378 72.9028C355.905 75.1698 358.126 78.9635 359.236 81.2306C360.393 83.4976 362.058 87.5689 362.937 90.2523C363.863 92.9357 364.973 97.0996 365.436 99.5055C365.945 101.911 366.453 106.815 366.592 110.378C366.777 114.31 366.685 118.706 366.361 121.482C366.083 124.026 365.297 128.283 364.649 130.966C364.001 133.649 362.66 137.906 361.688 140.45C360.67 142.995 358.773 146.974 357.478 149.241C356.182 151.508 353.962 154.978 352.527 156.875C351.14 158.772 348.271 162.103 346.235 164.231C344.153 166.359 340.822 169.413 338.787 170.986C336.751 172.605 333.096 175.057 330.69 176.491C328.284 177.926 324.537 179.822 322.362 180.748C320.188 181.627 316.764 182.876 314.729 183.477C312.693 184.079 309.13 184.958 306.863 185.421C303.81 186.022 300.386 186.207 293.909 186.253C287.432 186.253 283.962 186.022 280.723 185.421C278.318 184.958 273.922 183.801 271.008 182.83C268.093 181.858 263.698 180.054 261.292 178.851C258.886 177.648 256.341 176.26 254.352 174.918L242.184 182.691C230.618 190.047 229.97 190.417 227.749 190.417C226.315 190.417 224.927 190.093 224.141 189.585C223.447 189.168 222.475 188.104 221.966 187.271C221.087 185.837 221.041 184.958 221.041 147.622C221.041 122.777 221.226 108.018 221.55 105.289C221.827 103.022 222.614 98.8577 223.354 96.0355C224.048 93.2133 225.575 88.6793 226.778 85.8571C227.934 83.0349 229.97 79.0098 231.265 76.8353C232.561 74.6608 234.828 71.3297 236.262 69.4328C237.696 67.536 240.75 64.1123 243.063 61.799C245.376 59.532 249.217 56.2472 251.622 54.5353C254.028 52.7772 257.961 50.3714 260.366 49.1223C262.772 47.8731 266.335 46.2075 268.232 45.4673C270.129 44.727 273.876 43.5704 276.559 42.8764C279.243 42.2287 282.852 41.4884 284.656 41.2571C286.46 40.9795 291.318 40.887 295.528 40.9795ZM279.567 68.5075C277.809 69.0627 274.57 70.4507 272.396 71.5611C270.221 72.6714 267.121 74.6146 265.456 75.8638C263.79 77.1129 261.199 79.4262 259.673 81.0455C258.146 82.6648 256.018 85.2557 255 86.7824C253.936 88.3092 252.363 91.0389 251.484 92.7969C250.558 94.555 249.309 97.7011 248.661 99.7368C248.014 101.772 247.227 105.335 246.949 107.602C246.579 110.054 246.487 113.663 246.626 116.392C246.811 118.937 247.366 122.684 247.875 124.72C248.384 126.756 249.54 130.087 250.419 132.123C251.345 134.158 252.733 136.934 253.565 138.276C254.352 139.618 256.295 142.209 257.822 144.059C259.395 145.91 262.402 148.825 264.53 150.536C266.705 152.248 270.036 154.469 271.933 155.441C273.83 156.412 276.883 157.754 278.641 158.402C280.446 159.003 283.869 159.882 286.275 160.298C288.681 160.715 292.105 161.039 293.909 161.039C295.713 161.039 299.045 160.715 301.312 160.345C303.579 159.928 306.817 159.188 308.483 158.633C310.148 158.124 313.109 156.875 315.099 155.903L318.661 154.099C325.462 155.903 327.868 156.412 328.377 156.412C328.886 156.412 330.089 156.042 331.014 155.626C331.939 155.163 333.096 154.145 333.559 153.405C334.021 152.665 334.391 151.323 334.391 150.49C334.391 149.704 333.929 147.298 333.42 145.216L332.448 141.376C335.409 136.333 336.89 133.464 337.63 131.66C338.37 129.856 339.434 126.525 339.99 124.258C340.869 120.834 341.054 118.891 341.007 113.385C341.007 107.741 340.822 105.983 339.851 102.281C339.203 99.8756 337.861 96.1281 336.843 93.9536C335.872 91.7791 334.114 88.6793 333.003 87.0138C331.847 85.3482 329.672 82.6648 328.146 81.0455C326.619 79.4262 324.028 77.1129 322.362 75.8638C320.697 74.6146 317.597 72.6714 315.423 71.5611C313.248 70.4507 310.148 69.109 308.483 68.6001C306.817 68.0449 303.579 67.3046 301.312 66.8882C299.045 66.5181 295.482 66.1943 293.446 66.2405C291.411 66.2868 288.172 66.5644 286.275 66.8882C284.378 67.1658 281.371 67.9061 279.567 68.5075Z" fill="white"/>
<path fill-rule="evenodd" clip-rule="evenodd" d="M535.37 233.125H546.936V296.046H535.37V233.125ZM295.483 230.488C296.778 230.627 298.305 231.136 298.907 231.599C299.508 232.061 300.433 233.033 300.989 233.727C301.729 234.745 301.96 235.716 301.96 237.752C301.96 239.788 301.729 240.805 300.989 241.777C300.48 242.471 299.323 243.581 298.444 244.137C297.148 245.062 296.454 245.201 294.558 245.016C293.308 244.877 291.735 244.368 291.088 243.859C290.44 243.35 289.515 242.378 289.006 241.731C288.312 240.805 288.08 239.741 288.08 237.752C288.08 235.716 288.312 234.698 289.052 233.727C289.561 233.033 290.718 231.922 291.597 231.367C292.892 230.442 293.586 230.303 295.483 230.488ZM189.303 231.275H200.87V296.046H189.303V231.275ZM266.104 232.2H277.671V249.318H284.611V259.034H277.671V296.046H266.104V259.034H260.09V249.318H266.104V232.2ZM40.791 233.125H75.0275V244.692H52.3574V256.258H75.0275V267.825H52.3574V284.48H75.0275V296.046H40.791V233.125ZM453.202 233.357L465.37 264.355C472.032 281.427 477.538 295.491 477.538 295.723C477.538 295.908 474.808 296 465.324 295.815L460.188 282.583H434.28L429.144 295.815L423.037 295.954C417.439 296.046 416.93 296 417.115 295.26C417.208 294.797 422.621 280.779 429.19 264.123C435.714 247.468 441.173 233.634 441.312 233.449C441.404 233.264 444.134 233.172 453.202 233.357ZM438.814 270.693C438.721 270.878 442.515 271.063 447.234 271.063C453.896 271.063 455.747 270.924 455.608 270.462C455.516 270.184 453.619 265.419 451.398 259.959C449.177 254.5 447.326 249.966 447.28 249.92C447.234 249.873 445.337 254.407 443.07 260.052C440.757 265.696 438.86 270.462 438.814 270.693ZM487.346 233.033L498.542 233.264C506.963 233.403 510.386 233.634 512.468 234.236C513.995 234.652 516.355 235.716 517.696 236.595C519.084 237.567 520.75 239.232 521.722 240.667C522.601 241.962 523.665 244.414 524.081 246.08C524.59 248.115 524.775 250.197 524.636 252.557C524.497 254.87 524.035 256.86 523.248 258.571C522.601 259.959 521.49 261.81 520.75 262.689C520.01 263.568 518.575 264.817 517.558 265.511C516.54 266.251 514.365 267.269 512.7 267.825C510.664 268.472 507.934 268.935 498.82 269.444V296.046H487.254L487.346 233.033ZM498.82 257.877C507.518 257.415 509.137 257.137 510.248 256.489C511.08 255.981 512.098 254.916 512.468 254.084C512.839 253.251 513.162 251.909 513.162 251.076C513.162 250.244 512.746 248.902 512.237 248.069C511.728 247.236 510.618 246.218 509.785 245.802C508.813 245.293 506.685 244.923 503.632 244.784L498.913 244.599L498.82 257.877ZM156.038 248.439C157.658 248.393 160.387 248.717 162.053 249.087C163.672 249.503 166.495 250.567 168.253 251.539C170.011 252.464 172.602 254.407 174.036 255.795C175.655 257.415 177.228 259.635 178.292 261.81C179.218 263.707 180.235 266.344 180.513 267.686C180.791 269.027 181.022 271.248 181.022 272.682C181.022 274.07 180.791 276.291 180.513 277.633C180.235 278.975 179.264 281.565 178.431 283.416C177.367 285.637 175.933 287.719 174.175 289.477C172.694 290.957 170.566 292.715 169.456 293.409C168.299 294.057 166.124 295.029 164.598 295.584C163.071 296.093 160.017 296.648 157.889 296.787C155.067 296.972 153.031 296.833 150.718 296.278C148.914 295.861 146.23 294.844 144.703 294.057C143.177 293.224 140.632 291.327 139.105 289.801C137.255 287.95 135.728 285.868 134.618 283.555C133.646 281.612 132.674 278.928 132.397 277.54C132.166 276.106 131.934 273.839 131.98 272.451C131.98 271.017 132.304 268.518 132.674 266.899C133.091 265.234 134.062 262.643 134.895 261.116C135.682 259.589 137.625 257.091 139.152 255.564C140.678 254.037 143.177 252.094 144.703 251.308C146.23 250.475 148.729 249.503 150.255 249.133C151.782 248.763 154.373 248.439 156.038 248.439ZM150.163 260.515C149.423 260.885 147.942 262.226 146.832 263.476C145.629 264.864 144.611 266.622 144.195 268.056C143.824 269.305 143.501 271.387 143.501 272.682C143.501 273.932 143.824 276.014 144.195 277.309C144.611 278.697 145.629 280.501 146.832 281.889C147.942 283.092 149.7 284.526 150.718 285.035C151.736 285.544 153.818 286.099 155.345 286.192C157.288 286.377 158.861 286.192 160.665 285.59C162.469 284.989 163.857 284.11 165.523 282.398C167.189 280.733 168.068 279.345 168.669 277.54C169.085 276.106 169.456 273.932 169.456 272.682C169.456 271.387 169.132 269.259 168.762 267.917C168.299 266.344 167.374 264.771 166.078 263.337C165.014 262.18 163.302 260.792 162.284 260.283C161.081 259.682 159.277 259.265 157.195 259.173C155.391 259.127 153.355 259.219 152.707 259.404C152.013 259.635 150.857 260.098 150.163 260.515ZM333.698 248.439C335.318 248.393 338.047 248.717 339.713 249.087C341.332 249.503 344.154 250.567 345.912 251.539C347.67 252.464 350.261 254.407 351.696 255.795C353.315 257.415 354.888 259.635 355.952 261.81C356.877 263.707 357.895 266.344 358.173 267.686C358.45 269.027 358.682 271.248 358.682 272.682C358.682 274.07 358.45 276.291 358.173 277.633C357.895 278.975 356.924 281.565 356.091 283.416C355.027 285.637 353.593 287.719 351.834 289.477C350.354 290.957 348.226 292.715 347.115 293.409C345.959 294.057 343.784 295.029 342.257 295.584C340.731 296.093 337.677 296.648 335.549 296.787C332.727 296.972 330.691 296.833 328.378 296.278C326.573 295.861 323.89 294.844 322.363 294.057C320.836 293.224 318.292 291.327 316.765 289.801C314.914 287.95 313.388 285.868 312.277 283.555C311.306 281.612 310.334 278.928 310.057 277.54C309.825 276.106 309.594 273.839 309.64 272.451C309.64 271.017 309.964 268.518 310.334 266.899C310.751 265.234 311.722 262.643 312.555 261.116C313.341 259.589 315.285 257.091 316.811 255.564C318.338 254.037 320.836 252.094 322.363 251.308C323.89 250.475 326.388 249.503 327.915 249.133C329.442 248.763 332.033 248.439 333.698 248.439ZM327.823 260.515C327.082 260.885 325.602 262.226 324.491 263.476C323.288 264.864 322.271 266.622 321.854 268.056C321.484 269.305 321.16 271.387 321.16 272.682C321.16 273.932 321.484 276.014 321.854 277.309C322.271 278.697 323.288 280.501 324.491 281.889C325.602 283.092 327.36 284.526 328.378 285.035C329.396 285.544 331.478 286.099 333.004 286.192C334.947 286.377 336.52 286.192 338.325 285.59C340.129 284.989 341.517 284.11 343.183 282.398C344.848 280.733 345.727 279.345 346.329 277.54C346.745 276.106 347.115 273.932 347.115 272.682C347.115 271.387 346.791 269.259 346.421 267.917C345.959 266.344 345.033 264.771 343.738 263.337C342.674 262.18 340.962 260.792 339.944 260.283C338.741 259.682 336.937 259.265 334.855 259.173C333.051 259.127 331.015 259.219 330.367 259.404C329.673 259.635 328.517 260.098 327.823 260.515ZM394.306 248.532C397.082 248.624 398.378 248.948 400.783 250.059C402.726 251.03 404.485 252.326 405.734 253.76C406.844 255.009 408.093 256.952 408.51 258.109C409.204 259.867 409.296 262.643 409.574 296.046H398.007L397.869 280.871C397.776 265.743 397.776 265.743 396.619 263.429C395.972 262.18 394.908 260.746 394.306 260.283C393.658 259.821 392.178 259.312 391.068 259.173C389.818 258.988 388.199 259.173 387.135 259.497C386.117 259.821 384.544 260.792 383.665 261.579C382.74 262.365 381.491 264.17 380.889 265.557C379.733 268.01 379.732 268.195 379.501 296.046H367.935V249.318H379.501L379.732 253.991L381.352 252.742C382.231 252.094 383.804 251.123 384.822 250.567C385.84 250.059 387.598 249.365 388.754 248.994C389.865 248.671 392.363 248.439 394.306 248.532ZM91.4981 249.272L103.527 276.893L115.556 249.272H121.201C124.3 249.272 126.891 249.411 126.891 249.55C126.891 249.642 122.589 259.728 117.314 271.85C112.086 284.017 107.552 294.427 107.275 294.982C106.812 295.954 106.396 296.046 103.527 296.046C100.612 296.046 100.196 295.954 99.7334 294.982C99.4558 294.427 94.9217 284.017 89.6937 271.85C84.4194 259.728 80.163 249.642 80.163 249.55C80.163 249.411 82.7076 249.272 91.4981 249.272ZM211.002 249.318H222.661L222.753 264.216C222.846 277.448 222.985 279.345 223.725 281.01C224.188 282.028 224.882 283.231 225.344 283.74C225.761 284.203 226.964 284.989 227.981 285.452C228.999 285.914 230.665 286.284 231.683 286.331C232.701 286.331 234.227 286.099 235.153 285.776C236.032 285.498 237.327 284.711 238.067 284.064C238.808 283.37 239.733 282.213 240.149 281.473C240.797 280.224 240.936 278.095 241.028 249.318H252.734L252.548 264.678C252.41 276.06 252.178 280.733 251.716 282.629C251.346 284.017 250.42 286.284 249.68 287.626C248.94 289.014 247.367 290.957 246.256 292.021C245.1 293.039 243.11 294.381 241.861 294.936C240.566 295.538 238.391 296.232 237.003 296.463C235.569 296.74 233.302 296.972 231.914 296.972C230.48 296.972 228.12 296.74 226.593 296.463C225.067 296.185 222.661 295.353 221.273 294.659C219.839 293.965 217.803 292.392 216.739 291.235C215.675 290.032 214.333 288.228 213.778 287.117C213.223 286.053 212.483 284.017 212.112 282.629C211.603 280.733 211.372 276.06 211.187 264.678L211.002 249.318ZM289.283 249.318H300.85V296.046H289.283V249.318Z" fill="white"/>
</svg>
