<svg width="772" height="230" viewBox="0 0 772 230" fill="none" xmlns="http://www.w3.org/2000/svg">
<path fill-rule="evenodd" clip-rule="evenodd" d="M114.488 40.4521C119.947 40.5446 123.556 40.8684 127.211 41.6087C130.033 42.1639 134.382 43.3668 136.926 44.2458C139.471 45.1249 143.311 46.7442 145.485 47.8545C147.66 48.9187 151.315 51.0931 153.582 52.6199C155.849 54.1467 159.319 56.7838 161.216 58.4494C163.113 60.1612 165.981 63.0297 167.6 64.8803C169.22 66.6846 171.764 70.1083 173.337 72.3753C174.864 74.6423 177.085 78.4361 178.195 80.7031C179.352 82.9701 181.017 87.0415 181.896 89.7249C182.822 92.4083 183.932 96.5722 184.395 98.978C184.904 101.384 185.413 106.288 185.551 109.85C185.737 113.783 185.644 118.178 185.32 120.954C185.043 123.499 184.256 127.755 183.608 130.439C182.961 133.122 181.619 137.378 180.647 139.923C179.629 142.468 177.733 146.446 176.437 148.713C175.142 150.98 172.921 154.45 171.487 156.347C170.099 158.244 167.23 161.575 165.195 163.704C163.113 165.832 159.782 168.885 157.746 170.458C155.71 172.078 152.055 174.53 149.649 175.964C147.244 177.398 143.496 179.295 141.322 180.22C139.147 181.099 135.723 182.349 133.688 182.95C131.652 183.551 128.09 184.43 125.823 184.893C122.769 185.495 119.345 185.68 112.868 185.726C106.391 185.726 102.921 185.495 99.6826 184.893C97.2768 184.43 92.8815 183.274 89.9668 182.302C87.0521 181.331 82.6568 179.526 80.251 178.323C77.8452 177.121 75.3006 175.733 73.3112 174.391L61.1434 182.163C49.577 189.52 48.9293 189.89 46.7085 189.89C45.2743 189.89 43.8863 189.566 43.0998 189.057C42.4058 188.641 41.4342 187.577 40.9253 186.744C40.0463 185.31 40 184.43 40 147.094C40 122.25 40.1851 107.491 40.5089 104.761C40.7865 102.494 41.573 98.3303 42.3133 95.5081C43.0073 92.6859 44.534 88.1518 45.7369 85.3296C46.8936 82.5074 48.9293 78.4823 50.2247 76.3079C51.5201 74.1334 53.7871 70.8023 55.2214 68.9054C56.6556 67.0085 59.7091 63.5848 62.0224 61.2716C64.3357 59.0045 68.1757 55.7197 70.5815 54.0079C72.9873 52.2498 76.9199 49.844 79.3257 48.5948C81.7315 47.3456 85.294 45.6801 87.1909 44.9398C89.0878 44.1996 92.8353 43.0429 95.5187 42.3489C98.2021 41.7012 101.811 40.961 103.615 40.7297C105.42 40.4521 110.277 40.3595 114.488 40.4521ZM98.5259 67.9801C96.7678 68.5353 93.5293 69.9232 91.3548 71.0336C89.1803 72.144 86.0805 74.0871 84.4149 75.3363C82.7494 76.5855 80.1585 78.8987 78.6317 80.518C77.105 82.1373 74.9768 84.7282 73.9589 86.255C72.8948 87.7817 71.3218 90.5114 70.4427 92.2695C69.5174 94.0276 68.2683 97.1736 67.6205 99.2093C66.9728 101.245 66.1863 104.807 65.9087 107.074C65.5386 109.527 65.4461 113.135 65.5849 115.865C65.7699 118.41 66.3251 122.157 66.834 124.193C67.3429 126.228 68.4996 129.56 69.3786 131.595C70.3039 133.631 71.6919 136.407 72.5247 137.749C73.3112 139.09 75.2544 141.681 76.7811 143.532C78.3541 145.382 81.3614 148.297 83.4896 150.009C85.6641 151.721 88.9952 153.941 90.8921 154.913C92.789 155.885 95.8425 157.226 97.6006 157.874C99.405 158.475 102.829 159.355 105.234 159.771C107.64 160.187 111.064 160.511 112.868 160.511C114.673 160.511 118.004 160.187 120.271 159.817C122.538 159.401 125.776 158.661 127.442 158.105C129.107 157.596 132.068 156.347 134.058 155.376L137.62 153.571C144.421 155.376 146.827 155.885 147.336 155.885C147.845 155.885 149.048 155.514 149.973 155.098C150.899 154.635 152.055 153.618 152.518 152.877C152.981 152.137 153.351 150.795 153.351 149.963C153.351 149.176 152.888 146.77 152.379 144.688L151.407 140.848C154.368 135.805 155.849 132.937 156.589 131.133C157.329 129.328 158.394 125.997 158.949 123.73C159.828 120.306 160.013 118.363 159.967 112.858C159.967 107.213 159.782 105.455 158.81 101.754C158.162 99.3481 156.821 95.6006 155.803 93.4261C154.831 91.2516 153.073 88.1518 151.963 86.4863C150.806 84.8207 148.632 82.1373 147.105 80.518C145.578 78.8987 142.987 76.5855 141.322 75.3363C139.656 74.0871 136.556 72.144 134.382 71.0336C132.207 69.9232 129.107 68.5815 127.442 68.0726C125.776 67.5174 122.538 66.7772 120.271 66.3608C118.004 65.9906 114.441 65.6668 112.406 65.7131C110.37 65.7593 107.131 66.0369 105.234 66.3608C103.338 66.6384 100.33 67.3786 98.5259 67.9801Z" fill="#00BB75"/>
<path fill-rule="evenodd" clip-rule="evenodd" d="M720.225 84.5844H731.791V147.506H720.225V84.5844ZM480.338 81.9472C481.633 82.086 483.16 82.595 483.761 83.0576C484.363 83.5203 485.288 84.4919 485.843 85.1858C486.584 86.2037 486.815 87.1753 486.815 89.2109C486.815 91.2466 486.584 92.2645 485.843 93.236C485.334 93.93 484.178 95.0404 483.299 95.5956C482.003 96.5209 481.309 96.6597 479.412 96.4746C478.163 96.3358 476.59 95.8269 475.942 95.318C475.295 94.8091 474.369 93.8375 473.861 93.1898C473.167 92.2645 472.935 91.2004 472.935 89.2109C472.935 87.1753 473.166 86.1574 473.907 85.1858C474.416 84.4919 475.572 83.3815 476.451 82.8263C477.747 81.901 478.441 81.7622 480.338 81.9472ZM374.158 82.7338H385.725V147.506H374.158V82.7338ZM450.959 83.6591H462.525V100.777H469.465V110.493H462.525V147.506H450.959V110.493H444.945V100.777H450.959V83.6591ZM225.646 84.5844H259.882V96.1508H237.212V107.717H259.882V119.284H237.212V135.939H259.882V147.506H225.646V84.5844ZM638.057 84.8157L650.225 115.814C656.887 132.886 662.393 146.95 662.393 147.182C662.393 147.367 659.663 147.459 650.179 147.274L645.043 134.042H619.134L613.999 147.274L607.892 147.413C602.294 147.506 601.785 147.459 601.97 146.719C602.062 146.256 607.475 132.238 614.045 115.582C620.569 98.9267 626.028 85.0933 626.167 84.9082C626.259 84.7232 628.989 84.6306 638.057 84.8157ZM623.668 122.152C623.576 122.337 627.37 122.522 632.089 122.522C638.751 122.522 640.602 122.383 640.463 121.921C640.37 121.643 638.473 116.878 636.253 111.418C634.032 105.959 632.181 101.425 632.135 101.379C632.089 101.333 630.192 105.867 627.925 111.511C625.612 117.155 623.715 121.921 623.668 122.152ZM672.201 84.4918L683.397 84.7232C691.818 84.862 695.241 85.0933 697.323 85.6947C698.85 86.1111 701.21 87.1753 702.551 88.0543C703.939 89.0259 705.605 90.6914 706.576 92.1257C707.455 93.4211 708.519 95.8732 708.936 97.5387C709.445 99.5744 709.63 101.656 709.491 104.016C709.352 106.329 708.89 108.319 708.103 110.03C707.455 111.418 706.345 113.269 705.605 114.148C704.864 115.027 703.43 116.276 702.412 116.97C701.395 117.711 699.22 118.728 697.555 119.284C695.519 119.931 692.789 120.394 683.675 120.903V147.506H672.108L672.201 84.4918ZM683.675 109.336C692.373 108.874 693.992 108.596 695.102 107.948C695.935 107.44 696.953 106.375 697.323 105.543C697.693 104.71 698.017 103.368 698.017 102.535C698.017 101.703 697.601 100.361 697.092 99.5282C696.583 98.6954 695.473 97.6775 694.64 97.2611C693.668 96.7522 691.54 96.3821 688.486 96.2433L683.767 96.0582L683.675 109.336ZM340.893 99.8983C342.513 99.852 345.242 100.176 346.908 100.546C348.527 100.962 351.349 102.026 353.107 102.998C354.865 103.923 357.456 105.867 358.891 107.255C360.51 108.874 362.083 111.095 363.147 113.269C364.072 115.166 365.09 117.803 365.368 119.145C365.645 120.486 365.877 122.707 365.877 124.141C365.877 125.529 365.645 127.75 365.368 129.092C365.09 130.434 364.119 133.024 363.286 134.875C362.222 137.096 360.787 139.178 359.029 140.936C357.549 142.416 355.421 144.174 354.31 144.868C353.154 145.516 350.979 146.488 349.452 147.043C347.926 147.552 344.872 148.107 342.744 148.246C339.922 148.431 337.886 148.292 335.573 147.737C333.768 147.32 331.085 146.303 329.558 145.516C328.031 144.683 325.487 142.786 323.96 141.26C322.109 139.409 320.583 137.327 319.472 135.014C318.501 133.071 317.529 130.387 317.252 128.999C317.02 127.565 316.789 125.298 316.835 123.91C316.835 122.476 317.159 119.978 317.529 118.358C317.946 116.693 318.917 114.102 319.75 112.575C320.536 111.048 322.48 108.55 324.006 107.023C325.533 105.496 328.031 103.553 329.558 102.767C331.085 101.934 333.583 100.962 335.11 100.592C336.637 100.222 339.228 99.8983 340.893 99.8983ZM335.018 111.974C334.277 112.344 332.797 113.685 331.686 114.935C330.484 116.323 329.466 118.081 329.049 119.515C328.679 120.764 328.355 122.846 328.355 124.141C328.355 125.391 328.679 127.473 329.049 128.768C329.466 130.156 330.484 131.96 331.686 133.348C332.797 134.551 334.555 135.985 335.573 136.494C336.591 137.003 338.673 137.558 340.199 137.651C342.142 137.836 343.715 137.651 345.52 137.05C347.324 136.448 348.712 135.569 350.378 133.857C352.043 132.192 352.922 130.804 353.524 128.999C353.94 127.565 354.31 125.391 354.31 124.141C354.31 122.846 353.986 120.718 353.616 119.376C353.154 117.803 352.228 116.23 350.933 114.796C349.869 113.639 348.157 112.251 347.139 111.742C345.936 111.141 344.132 110.724 342.05 110.632C340.246 110.586 338.21 110.678 337.562 110.863C336.868 111.095 335.712 111.557 335.018 111.974ZM518.553 99.8983C520.172 99.852 522.902 100.176 524.568 100.546C526.187 100.962 529.009 102.026 530.767 102.998C532.525 103.923 535.116 105.867 536.55 107.255C538.17 108.874 539.743 111.095 540.807 113.269C541.732 115.166 542.75 117.803 543.027 119.145C543.305 120.486 543.536 122.707 543.536 124.141C543.536 125.529 543.305 127.75 543.027 129.092C542.75 130.434 541.778 133.024 540.946 134.875C539.881 137.096 538.447 139.178 536.689 140.936C535.209 142.416 533.08 144.174 531.97 144.868C530.813 145.516 528.639 146.488 527.112 147.043C525.585 147.552 522.532 148.107 520.404 148.246C517.581 148.431 515.546 148.292 513.232 147.737C511.428 147.32 508.745 146.303 507.218 145.516C505.691 144.683 503.147 142.786 501.62 141.26C499.769 139.409 498.242 137.327 497.132 135.014C496.161 133.071 495.189 130.387 494.911 128.999C494.68 127.565 494.449 125.298 494.495 123.91C494.495 122.476 494.819 119.978 495.189 118.358C495.605 116.693 496.577 114.102 497.41 112.575C498.196 111.048 500.139 108.55 501.666 107.023C503.193 105.496 505.691 103.553 507.218 102.767C508.745 101.934 511.243 100.962 512.77 100.592C514.297 100.222 516.887 99.8983 518.553 99.8983ZM512.677 111.974C511.937 112.344 510.457 113.685 509.346 114.935C508.143 116.323 507.125 118.081 506.709 119.515C506.339 120.764 506.015 122.846 506.015 124.141C506.015 125.391 506.339 127.473 506.709 128.768C507.125 130.156 508.143 131.96 509.346 133.348C510.457 134.551 512.215 135.985 513.232 136.494C514.25 137.003 516.332 137.558 517.859 137.651C519.802 137.836 521.375 137.651 523.18 137.05C524.984 136.448 526.372 135.569 528.037 133.857C529.703 132.192 530.582 130.804 531.184 128.999C531.6 127.565 531.97 125.391 531.97 124.141C531.97 122.846 531.646 120.718 531.276 119.376C530.813 117.803 529.888 116.23 528.593 114.796C527.529 113.639 525.817 112.251 524.799 111.742C523.596 111.141 521.792 110.724 519.71 110.632C517.905 110.586 515.87 110.678 515.222 110.863C514.528 111.095 513.371 111.557 512.677 111.974ZM579.161 99.9908C581.937 100.083 583.232 100.407 585.638 101.518C587.581 102.489 589.339 103.785 590.589 105.219C591.699 106.468 592.948 108.411 593.364 109.568C594.058 111.326 594.151 114.102 594.429 147.506H582.862L582.723 132.33C582.631 117.202 582.631 117.202 581.474 114.888C580.826 113.639 579.762 112.205 579.161 111.742C578.513 111.28 577.033 110.771 575.922 110.632C574.673 110.447 573.054 110.632 571.99 110.956C570.972 111.28 569.399 112.251 568.52 113.038C567.594 113.824 566.345 115.629 565.744 117.017C564.587 119.469 564.587 119.654 564.356 147.506H552.79V100.777H564.356L564.587 105.45L566.207 104.201C567.086 103.553 568.659 102.582 569.676 102.026C570.694 101.518 572.452 100.824 573.609 100.453C574.719 100.13 577.218 99.8983 579.161 99.9908ZM276.353 100.731L288.382 128.352L300.411 100.731H306.055C309.155 100.731 311.746 100.87 311.746 101.009C311.746 101.101 307.443 111.187 302.169 123.309C296.941 135.476 292.407 145.886 292.129 146.441C291.667 147.413 291.25 147.506 288.382 147.506C285.467 147.506 285.051 147.413 284.588 146.441C284.311 145.886 279.776 135.476 274.548 123.309C269.274 111.187 265.018 101.101 265.018 101.009C265.018 100.87 267.562 100.731 276.353 100.731ZM395.857 100.777H407.516L407.608 115.675C407.701 128.907 407.84 130.804 408.58 132.469C409.042 133.487 409.736 134.69 410.199 135.199C410.615 135.662 411.818 136.448 412.836 136.911C413.854 137.373 415.52 137.744 416.537 137.79C417.555 137.79 419.082 137.558 420.007 137.235C420.886 136.957 422.182 136.17 422.922 135.523C423.662 134.829 424.588 133.672 425.004 132.932C425.652 131.683 425.791 129.555 425.883 100.777H437.588L437.403 116.137C437.264 127.519 437.033 132.192 436.57 134.089C436.2 135.476 435.275 137.743 434.535 139.085C433.795 140.473 432.221 142.416 431.111 143.48C429.954 144.498 427.965 145.84 426.716 146.395C425.42 146.997 423.246 147.691 421.858 147.922C420.424 148.2 418.157 148.431 416.769 148.431C415.335 148.431 412.975 148.2 411.448 147.922C409.921 147.644 407.516 146.812 406.128 146.118C404.693 145.424 402.658 143.851 401.594 142.694C400.53 141.491 399.188 139.687 398.633 138.576C398.078 137.512 397.337 135.476 396.967 134.089C396.458 132.192 396.227 127.519 396.042 116.137L395.857 100.777ZM474.138 100.777H485.704V147.506H474.138V100.777Z" fill="#00BB75"/>
</svg>
