<svg width="588" height="337" viewBox="0 0 588 337" fill="none" xmlns="http://www.w3.org/2000/svg">
<path fill-rule="evenodd" clip-rule="evenodd" d="M295.528 40.0347C300.988 40.1272 304.596 40.4511 308.251 41.1913C311.074 41.7465 315.423 42.9494 317.967 43.8285C320.512 44.7075 324.352 46.3268 326.526 47.4372C328.701 48.5013 332.356 50.6758 334.623 52.2025C336.89 53.7293 340.36 56.3664 342.257 58.032C344.153 59.7438 347.022 62.6123 348.641 64.4629C350.26 66.2673 352.805 69.6909 354.378 71.9579C355.905 74.2249 358.126 78.0187 359.236 80.2857C360.393 82.5527 362.058 86.6241 362.937 89.3075C363.863 91.9909 364.973 96.1548 365.436 98.5606C365.945 100.966 366.453 105.871 366.592 109.433C366.777 113.366 366.685 117.761 366.361 120.537C366.083 123.081 365.297 127.338 364.649 130.021C364.001 132.705 362.66 136.961 361.688 139.506C360.67 142.05 358.773 146.029 357.478 148.296C356.182 150.563 353.962 154.033 352.527 155.93C351.14 157.827 348.271 161.158 346.235 163.286C344.153 165.414 340.822 168.468 338.787 170.041C336.751 171.66 333.096 174.112 330.69 175.547C328.284 176.981 324.537 178.878 322.362 179.803C320.188 180.682 316.764 181.931 314.729 182.533C312.693 183.134 309.13 184.013 306.863 184.476C303.81 185.077 300.386 185.262 293.909 185.309C287.432 185.309 283.962 185.077 280.723 184.476C278.318 184.013 273.922 182.856 271.008 181.885C268.093 180.913 263.698 179.109 261.292 177.906C258.886 176.703 256.341 175.315 254.352 173.973L242.184 181.746C230.618 189.102 229.97 189.472 227.749 189.472C226.315 189.472 224.927 189.149 224.141 188.64C223.447 188.223 222.475 187.159 221.966 186.326C221.087 184.892 221.041 184.013 221.041 146.677C221.041 121.832 221.226 107.073 221.55 104.344C221.827 102.077 222.614 97.9129 223.354 95.0907C224.048 92.2685 225.575 87.7345 226.778 84.9123C227.934 82.0901 229.97 78.065 231.265 75.8905C232.561 73.716 234.828 70.3849 236.262 68.488C237.696 66.5911 240.75 63.1675 243.063 60.8542C245.376 58.5872 249.217 55.3023 251.622 53.5905C254.028 51.8324 257.961 49.4266 260.366 48.1774C262.772 46.9283 266.335 45.2627 268.232 44.5225C270.129 43.7822 273.876 42.6256 276.559 41.9316C279.243 41.2839 282.852 40.5436 284.656 40.3123C286.46 40.0347 291.318 39.9422 295.528 40.0347ZM279.567 67.5627C277.809 68.1179 274.57 69.5059 272.396 70.6162C270.221 71.7266 267.121 73.6698 265.456 74.9189C263.79 76.1681 261.199 78.4814 259.673 80.1007C258.146 81.72 256.018 84.3108 255 85.8376C253.936 87.3644 252.363 90.094 251.484 91.8521C250.558 93.6102 249.309 96.7563 248.661 98.792C248.014 100.828 247.227 104.39 246.949 106.657C246.579 109.109 246.487 112.718 246.626 115.448C246.811 117.992 247.366 121.74 247.875 123.775C248.384 125.811 249.54 129.142 250.419 131.178C251.345 133.214 252.733 135.989 253.565 137.331C254.352 138.673 256.295 141.264 257.822 143.114C259.395 144.965 262.402 147.88 264.53 149.592C266.705 151.303 270.036 153.524 271.933 154.496C273.83 155.467 276.883 156.809 278.641 157.457C280.446 158.058 283.869 158.937 286.275 159.354C288.681 159.77 292.105 160.094 293.909 160.094C295.713 160.094 299.045 159.77 301.312 159.4C303.579 158.983 306.817 158.243 308.483 157.688C310.148 157.179 313.109 155.93 315.099 154.958L318.661 153.154C325.462 154.958 327.868 155.467 328.377 155.467C328.886 155.467 330.089 155.097 331.014 154.681C331.939 154.218 333.096 153.2 333.559 152.46C334.021 151.72 334.391 150.378 334.391 149.545C334.391 148.759 333.929 146.353 333.42 144.271L332.448 140.431C335.409 135.388 336.89 132.52 337.63 130.715C338.37 128.911 339.434 125.58 339.99 123.313C340.869 119.889 341.054 117.946 341.007 112.44C341.007 106.796 340.822 105.038 339.851 101.337C339.203 98.9308 337.861 95.1832 336.843 93.0088C335.872 90.8343 334.114 87.7345 333.003 86.0689C331.847 84.4034 329.672 81.72 328.146 80.1007C326.619 78.4814 324.028 76.1681 322.362 74.9189C320.697 73.6698 317.597 71.7266 315.423 70.6162C313.248 69.5059 310.148 68.1642 308.483 67.6552C306.817 67.1 303.579 66.3598 301.312 65.9434C299.045 65.5733 295.482 65.2494 293.446 65.2957C291.411 65.342 288.172 65.6196 286.275 65.9434C284.378 66.221 281.371 66.9613 279.567 67.5627Z" fill="#00BB75"/>
<path fill-rule="evenodd" clip-rule="evenodd" d="M535.37 232.18H546.936V295.102H535.37V232.18ZM295.483 229.543C296.778 229.682 298.305 230.191 298.907 230.654C299.508 231.116 300.433 232.088 300.989 232.782C301.729 233.8 301.96 234.771 301.96 236.807C301.96 238.843 301.729 239.861 300.989 240.832C300.48 241.526 299.323 242.637 298.444 243.192C297.148 244.117 296.454 244.256 294.558 244.071C293.308 243.932 291.735 243.423 291.088 242.914C290.44 242.405 289.515 241.434 289.006 240.786C288.312 239.861 288.08 238.796 288.08 236.807C288.08 234.771 288.312 233.754 289.052 232.782C289.561 232.088 290.718 230.978 291.597 230.422C292.892 229.497 293.586 229.358 295.483 229.543ZM189.303 230.33H200.87V295.102H189.303V230.33ZM266.104 231.255H277.671V248.373H284.611V258.089H277.671V295.102H266.104V258.089H260.09V248.373H266.104V231.255ZM40.791 232.18H75.0275V243.747H52.3574V255.313H75.0275V266.88H52.3574V283.535H75.0275V295.102H40.791V232.18ZM453.202 232.412L465.37 263.41C472.032 280.482 477.538 294.546 477.538 294.778C477.538 294.963 474.808 295.055 465.324 294.87L460.188 281.638H434.28L429.144 294.87L423.037 295.009C417.439 295.102 416.93 295.055 417.115 294.315C417.208 293.852 422.621 279.834 429.19 263.178C435.714 246.523 441.173 232.689 441.312 232.504C441.404 232.319 444.134 232.227 453.202 232.412ZM438.814 269.748C438.721 269.933 442.515 270.118 447.234 270.118C453.896 270.118 455.747 269.979 455.608 269.517C455.516 269.239 453.619 264.474 451.398 259.015C449.177 253.555 447.326 249.021 447.28 248.975C447.234 248.929 445.337 253.463 443.07 259.107C440.757 264.751 438.86 269.517 438.814 269.748ZM487.346 232.088L498.542 232.319C506.963 232.458 510.386 232.689 512.468 233.291C513.995 233.707 516.355 234.771 517.696 235.65C519.084 236.622 520.75 238.288 521.722 239.722C522.601 241.017 523.665 243.469 524.081 245.135C524.59 247.171 524.775 249.252 524.636 251.612C524.497 253.925 524.035 255.915 523.248 257.627C522.601 259.015 521.49 260.865 520.75 261.744C520.01 262.623 518.575 263.872 517.558 264.566C516.54 265.307 514.365 266.324 512.7 266.88C510.664 267.527 507.934 267.99 498.82 268.499V295.102H487.254L487.346 232.088ZM498.82 256.933C507.518 256.47 509.137 256.192 510.248 255.545C511.08 255.036 512.098 253.972 512.468 253.139C512.839 252.306 513.162 250.964 513.162 250.132C513.162 249.299 512.746 247.957 512.237 247.124C511.728 246.291 510.618 245.274 509.785 244.857C508.813 244.348 506.685 243.978 503.632 243.839L498.913 243.654L498.82 256.933ZM156.038 247.494C157.658 247.448 160.387 247.772 162.053 248.142C163.672 248.559 166.495 249.623 168.253 250.594C170.011 251.519 172.602 253.463 174.036 254.851C175.655 256.47 177.228 258.691 178.292 260.865C179.218 262.762 180.235 265.399 180.513 266.741C180.791 268.083 181.022 270.303 181.022 271.738C181.022 273.126 180.791 275.346 180.513 276.688C180.235 278.03 179.264 280.621 178.431 282.471C177.367 284.692 175.933 286.774 174.175 288.532C172.694 290.012 170.566 291.771 169.456 292.465C168.299 293.112 166.124 294.084 164.598 294.639C163.071 295.148 160.017 295.703 157.889 295.842C155.067 296.027 153.031 295.888 150.718 295.333C148.914 294.917 146.23 293.899 144.703 293.112C143.177 292.279 140.632 290.383 139.105 288.856C137.255 287.005 135.728 284.923 134.618 282.61C133.646 280.667 132.674 277.983 132.397 276.595C132.166 275.161 131.934 272.894 131.98 271.506C131.98 270.072 132.304 267.574 132.674 265.954C133.091 264.289 134.062 261.698 134.895 260.171C135.682 258.644 137.625 256.146 139.152 254.619C140.678 253.093 143.177 251.149 144.703 250.363C146.23 249.53 148.729 248.559 150.255 248.188C151.782 247.818 154.373 247.494 156.038 247.494ZM150.163 259.57C149.423 259.94 147.942 261.282 146.832 262.531C145.629 263.919 144.611 265.677 144.195 267.111C143.824 268.36 143.501 270.442 143.501 271.738C143.501 272.987 143.824 275.069 144.195 276.364C144.611 277.752 145.629 279.556 146.832 280.944C147.942 282.147 149.7 283.582 150.718 284.09C151.736 284.599 153.818 285.155 155.345 285.247C157.288 285.432 158.861 285.247 160.665 284.646C162.469 284.044 163.857 283.165 165.523 281.453C167.189 279.788 168.068 278.4 168.669 276.595C169.085 275.161 169.456 272.987 169.456 271.738C169.456 270.442 169.132 268.314 168.762 266.972C168.299 265.399 167.374 263.826 166.078 262.392C165.014 261.235 163.302 259.847 162.284 259.338C161.081 258.737 159.277 258.321 157.195 258.228C155.391 258.182 153.355 258.274 152.707 258.459C152.013 258.691 150.857 259.153 150.163 259.57ZM333.698 247.494C335.318 247.448 338.047 247.772 339.713 248.142C341.332 248.559 344.154 249.623 345.912 250.594C347.67 251.519 350.261 253.463 351.696 254.851C353.315 256.47 354.888 258.691 355.952 260.865C356.877 262.762 357.895 265.399 358.173 266.741C358.45 268.083 358.682 270.303 358.682 271.738C358.682 273.126 358.45 275.346 358.173 276.688C357.895 278.03 356.924 280.621 356.091 282.471C355.027 284.692 353.593 286.774 351.834 288.532C350.354 290.012 348.226 291.771 347.115 292.465C345.959 293.112 343.784 294.084 342.257 294.639C340.731 295.148 337.677 295.703 335.549 295.842C332.727 296.027 330.691 295.888 328.378 295.333C326.573 294.917 323.89 293.899 322.363 293.112C320.836 292.279 318.292 290.383 316.765 288.856C314.914 287.005 313.388 284.923 312.277 282.61C311.306 280.667 310.334 277.983 310.057 276.595C309.825 275.161 309.594 272.894 309.64 271.506C309.64 270.072 309.964 267.574 310.334 265.954C310.751 264.289 311.722 261.698 312.555 260.171C313.341 258.644 315.285 256.146 316.811 254.619C318.338 253.093 320.836 251.149 322.363 250.363C323.89 249.53 326.388 248.559 327.915 248.188C329.442 247.818 332.033 247.494 333.698 247.494ZM327.823 259.57C327.082 259.94 325.602 261.282 324.491 262.531C323.288 263.919 322.271 265.677 321.854 267.111C321.484 268.36 321.16 270.442 321.16 271.738C321.16 272.987 321.484 275.069 321.854 276.364C322.271 277.752 323.288 279.556 324.491 280.944C325.602 282.147 327.36 283.582 328.378 284.09C329.396 284.599 331.478 285.155 333.004 285.247C334.947 285.432 336.52 285.247 338.325 284.646C340.129 284.044 341.517 283.165 343.183 281.453C344.848 279.788 345.727 278.4 346.329 276.595C346.745 275.161 347.115 272.987 347.115 271.738C347.115 270.442 346.791 268.314 346.421 266.972C345.959 265.399 345.033 263.826 343.738 262.392C342.674 261.235 340.962 259.847 339.944 259.338C338.741 258.737 336.937 258.321 334.855 258.228C333.051 258.182 331.015 258.274 330.367 258.459C329.673 258.691 328.517 259.153 327.823 259.57ZM394.306 247.587C397.082 247.679 398.378 248.003 400.783 249.114C402.726 250.085 404.485 251.381 405.734 252.815C406.844 254.064 408.093 256.007 408.51 257.164C409.204 258.922 409.296 261.698 409.574 295.102H398.007L397.869 279.927C397.776 264.798 397.776 264.798 396.619 262.484C395.972 261.235 394.908 259.801 394.306 259.338C393.658 258.876 392.178 258.367 391.068 258.228C389.818 258.043 388.199 258.228 387.135 258.552C386.117 258.876 384.544 259.847 383.665 260.634C382.74 261.42 381.491 263.225 380.889 264.613C379.733 267.065 379.732 267.25 379.501 295.102H367.935V248.373H379.501L379.732 253.046L381.352 251.797C382.231 251.149 383.804 250.178 384.822 249.623C385.84 249.114 387.598 248.42 388.754 248.05C389.865 247.726 392.363 247.494 394.306 247.587ZM91.4981 248.327L103.527 275.948L115.556 248.327H121.201C124.3 248.327 126.891 248.466 126.891 248.605C126.891 248.697 122.589 258.783 117.314 270.905C112.086 283.073 107.552 293.482 107.275 294.038C106.812 295.009 106.396 295.102 103.527 295.102C100.612 295.102 100.196 295.009 99.7334 294.038C99.4558 293.482 94.9217 283.073 89.6937 270.905C84.4194 258.783 80.163 248.697 80.163 248.605C80.163 248.466 82.7076 248.327 91.4981 248.327ZM211.002 248.373H222.661L222.753 263.271C222.846 276.503 222.985 278.4 223.725 280.065C224.188 281.083 224.882 282.286 225.344 282.795C225.761 283.258 226.964 284.044 227.981 284.507C228.999 284.969 230.665 285.34 231.683 285.386C232.701 285.386 234.227 285.155 235.153 284.831C236.032 284.553 237.327 283.767 238.067 283.119C238.808 282.425 239.733 281.268 240.149 280.528C240.797 279.279 240.936 277.151 241.028 248.373H252.734L252.548 263.734C252.41 275.115 252.178 279.788 251.716 281.685C251.346 283.073 250.42 285.34 249.68 286.681C248.94 288.069 247.367 290.012 246.256 291.077C245.1 292.094 243.11 293.436 241.861 293.991C240.566 294.593 238.391 295.287 237.003 295.518C235.569 295.796 233.302 296.027 231.914 296.027C230.48 296.027 228.12 295.796 226.593 295.518C225.067 295.24 222.661 294.408 221.273 293.714C219.839 293.02 217.803 291.447 216.739 290.29C215.675 289.087 214.333 287.283 213.778 286.172C213.223 285.108 212.483 283.073 212.112 281.685C211.603 279.788 211.372 275.115 211.187 263.734L211.002 248.373ZM289.283 248.373H300.85V295.102H289.283V248.373Z" fill="#141414"/>
</svg>
