<svg width="772" height="231" viewBox="0 0 772 231" fill="none" xmlns="http://www.w3.org/2000/svg">
<path fill-rule="evenodd" clip-rule="evenodd" d="M114.488 40.9796C119.947 41.0722 123.556 41.396 127.211 42.1363C130.033 42.6915 134.382 43.8944 136.926 44.7734C139.471 45.6525 143.311 47.2718 145.485 48.3821C147.66 49.4462 151.315 51.6207 153.582 53.1475C155.849 54.6743 159.319 57.3114 161.216 58.9769C163.113 60.6888 165.981 63.5572 167.6 65.4079C169.22 67.2122 171.764 70.6359 173.337 72.9029C174.864 75.1699 177.085 78.9637 178.195 81.2307C179.352 83.4977 181.017 87.5691 181.896 90.2525C182.822 92.9359 183.932 97.0998 184.395 99.5056C184.904 101.911 185.413 106.816 185.551 110.378C185.737 114.311 185.644 118.706 185.32 121.482C185.043 124.026 184.256 128.283 183.608 130.966C182.961 133.65 181.619 137.906 180.647 140.451C179.629 142.995 177.733 146.974 176.437 149.241C175.142 151.508 172.921 154.978 171.487 156.875C170.099 158.772 167.23 162.103 165.195 164.231C163.113 166.359 159.782 169.413 157.746 170.986C155.71 172.605 152.055 175.057 149.649 176.491C147.244 177.926 143.496 179.823 141.322 180.748C139.147 181.627 135.723 182.876 133.688 183.478C131.652 184.079 128.09 184.958 125.823 185.421C122.769 186.022 119.345 186.207 112.868 186.253C106.391 186.253 102.921 186.022 99.6826 185.421C97.2768 184.958 92.8815 183.801 89.9668 182.83C87.0521 181.858 82.6568 180.054 80.251 178.851C77.8452 177.648 75.3006 176.26 73.3112 174.918L61.1434 182.691C49.577 190.047 48.9293 190.417 46.7085 190.417C45.2743 190.417 43.8863 190.094 43.0998 189.585C42.4058 189.168 41.4342 188.104 40.9253 187.271C40.0463 185.837 40 184.958 40 147.622C40 122.777 40.1851 108.018 40.5089 105.289C40.7865 103.022 41.573 98.8579 42.3133 96.0357C43.0073 93.2135 44.534 88.6794 45.7369 85.8572C46.8936 83.035 48.9293 79.0099 50.2247 76.8354C51.5201 74.661 53.7871 71.3299 55.2214 69.433C56.6556 67.5361 59.7091 64.1124 62.0224 61.7991C64.3357 59.5321 68.1757 56.2473 70.5815 54.5355C72.9873 52.7774 76.9199 50.3716 79.3257 49.1224C81.7315 47.8732 85.294 46.2077 87.1909 45.4674C89.0878 44.7272 92.8353 43.5705 95.5187 42.8765C98.2021 42.2288 101.811 41.4886 103.615 41.2572C105.42 40.9796 110.277 40.8871 114.488 40.9796ZM98.5259 68.5077C96.7678 69.0628 93.5293 70.4508 91.3548 71.5612C89.1803 72.6716 86.0805 74.6147 84.4149 75.8639C82.7494 77.113 80.1585 79.4263 78.6317 81.0456C77.105 82.6649 74.9768 85.2558 73.9589 86.7825C72.8948 88.3093 71.3218 91.039 70.4427 92.7971C69.5174 94.5552 68.2683 97.7012 67.6205 99.7369C66.9728 101.773 66.1863 105.335 65.9087 107.602C65.5386 110.054 65.4461 113.663 65.5849 116.393C65.7699 118.937 66.3251 122.685 66.834 124.72C67.3429 126.756 68.4996 130.087 69.3786 132.123C70.3039 134.158 71.6919 136.934 72.5247 138.276C73.3112 139.618 75.2544 142.209 76.7811 144.059C78.3541 145.91 81.3614 148.825 83.4896 150.536C85.6641 152.248 88.9952 154.469 90.8921 155.441C92.789 156.412 95.8425 157.754 97.6006 158.402C99.405 159.003 102.829 159.882 105.234 160.299C107.64 160.715 111.064 161.039 112.868 161.039C114.673 161.039 118.004 160.715 120.271 160.345C122.538 159.928 125.776 159.188 127.442 158.633C129.107 158.124 132.068 156.875 134.058 155.903L137.62 154.099C144.421 155.903 146.827 156.412 147.336 156.412C147.845 156.412 149.048 156.042 149.973 155.626C150.899 155.163 152.055 154.145 152.518 153.405C152.981 152.665 153.351 151.323 153.351 150.49C153.351 149.704 152.888 147.298 152.379 145.216L151.407 141.376C154.368 136.333 155.849 133.464 156.589 131.66C157.329 129.856 158.394 126.525 158.949 124.258C159.828 120.834 160.013 118.891 159.967 113.385C159.967 107.741 159.782 105.983 158.81 102.282C158.162 99.8757 156.821 96.1282 155.803 93.9537C154.831 91.7792 153.073 88.6794 151.963 87.0139C150.806 85.3483 148.632 82.6649 147.105 81.0456C145.578 79.4263 142.987 77.113 141.322 75.8639C139.656 74.6147 136.556 72.6716 134.382 71.5612C132.207 70.4508 129.107 69.1091 127.442 68.6002C125.776 68.045 122.538 67.3047 120.271 66.8884C118.004 66.5182 114.441 66.1944 112.406 66.2406C110.37 66.2869 107.131 66.5645 105.234 66.8884C103.338 67.166 100.33 67.9062 98.5259 68.5077Z" fill="white"/>
<path fill-rule="evenodd" clip-rule="evenodd" d="M720.225 85.112H731.791V148.033H720.225V85.112ZM480.338 82.4748C481.633 82.6136 483.16 83.1225 483.761 83.5852C484.363 84.0479 485.288 85.0194 485.843 85.7134C486.584 86.7313 486.815 87.7028 486.815 89.7385C486.815 91.7742 486.584 92.792 485.843 93.7636C485.334 94.4576 484.178 95.568 483.299 96.1232C482.003 97.0485 481.309 97.1873 479.412 97.0022C478.163 96.8634 476.59 96.3545 475.942 95.8456C475.295 95.3367 474.369 94.3651 473.861 93.7174C473.167 92.7921 472.935 91.7279 472.935 89.7385C472.935 87.7028 473.166 86.685 473.907 85.7134C474.416 85.0194 475.572 83.9091 476.451 83.3539C477.747 82.4286 478.441 82.2898 480.338 82.4748ZM374.158 83.2613H385.725V148.033H374.158V83.2613ZM450.959 84.1867H462.525V101.305H469.465V111.021H462.525V148.033H450.959V111.021H444.945V101.305H450.959V84.1867ZM225.646 85.112H259.882V96.6784H237.212V108.245H259.882V119.811H237.212V136.467H259.882V148.033H225.646V85.112ZM638.057 85.3433L650.225 116.341C656.887 133.413 662.393 147.478 662.393 147.709C662.393 147.894 659.663 147.987 650.179 147.802L645.043 134.57H619.134L613.999 147.802L607.892 147.941C602.294 148.033 601.785 147.987 601.97 147.247C602.062 146.784 607.475 132.765 614.045 116.11C620.569 99.4543 626.028 85.6209 626.167 85.4358C626.259 85.2508 628.989 85.1582 638.057 85.3433ZM623.668 122.68C623.576 122.865 627.37 123.05 632.089 123.05C638.751 123.05 640.602 122.911 640.463 122.448C640.37 122.171 638.473 117.405 636.253 111.946C634.032 106.487 632.181 101.953 632.135 101.906C632.089 101.86 630.192 106.394 627.925 112.039C625.612 117.683 623.715 122.448 623.668 122.68ZM672.201 85.0194L683.397 85.2508C691.818 85.3896 695.241 85.6209 697.323 86.2223C698.85 86.6387 701.21 87.7028 702.551 88.5819C703.939 89.5535 705.605 91.219 706.576 92.6533C707.455 93.9487 708.519 96.4008 708.936 98.0663C709.445 100.102 709.63 102.184 709.491 104.544C709.352 106.857 708.89 108.846 708.103 110.558C707.455 111.946 706.345 113.797 705.605 114.676C704.864 115.555 703.43 116.804 702.412 117.498C701.395 118.238 699.22 119.256 697.555 119.811C695.519 120.459 692.789 120.922 683.675 121.43V148.033H672.108L672.201 85.0194ZM683.675 109.864C692.373 109.401 693.992 109.124 695.102 108.476C695.935 107.967 696.953 106.903 697.323 106.07C697.693 105.237 698.017 103.896 698.017 103.063C698.017 102.23 697.601 100.889 697.092 100.056C696.583 99.223 695.473 98.2051 694.64 97.7887C693.668 97.2798 691.54 96.9097 688.486 96.7709L683.767 96.5858L683.675 109.864ZM340.893 100.426C342.513 100.38 345.242 100.703 346.908 101.074C348.527 101.49 351.349 102.554 353.107 103.526C354.865 104.451 357.456 106.394 358.891 107.782C360.51 109.401 362.083 111.622 363.147 113.797C364.072 115.693 365.09 118.331 365.368 119.672C365.645 121.014 365.877 123.235 365.877 124.669C365.877 126.057 365.645 128.278 365.368 129.619C365.09 130.961 364.119 133.552 363.286 135.403C362.222 137.623 360.787 139.705 359.029 141.463C357.549 142.944 355.421 144.702 354.31 145.396C353.154 146.044 350.979 147.015 349.452 147.57C347.926 148.079 344.872 148.635 342.744 148.773C339.922 148.958 337.886 148.82 335.573 148.264C333.768 147.848 331.085 146.83 329.558 146.044C328.031 145.211 325.487 143.314 323.96 141.787C322.109 139.937 320.583 137.855 319.472 135.541C318.501 133.598 317.529 130.915 317.252 129.527C317.02 128.093 316.789 125.826 316.835 124.438C316.835 123.003 317.159 120.505 317.529 118.886C317.946 117.22 318.917 114.629 319.75 113.103C320.536 111.576 322.48 109.078 324.006 107.551C325.533 106.024 328.031 104.081 329.558 103.294C331.085 102.462 333.583 101.49 335.11 101.12C336.637 100.75 339.228 100.426 340.893 100.426ZM335.018 112.501C334.277 112.871 332.797 114.213 331.686 115.462C330.484 116.85 329.466 118.608 329.049 120.042C328.679 121.292 328.355 123.374 328.355 124.669C328.355 125.918 328.679 128 329.049 129.296C329.466 130.684 330.484 132.488 331.686 133.876C332.797 135.079 334.555 136.513 335.573 137.022C336.591 137.531 338.673 138.086 340.199 138.179C342.142 138.364 343.715 138.179 345.52 137.577C347.324 136.976 348.712 136.097 350.378 134.385C352.043 132.719 352.922 131.331 353.524 129.527C353.94 128.093 354.31 125.918 354.31 124.669C354.31 123.374 353.986 121.245 353.616 119.904C353.154 118.331 352.228 116.758 350.933 115.323C349.869 114.167 348.157 112.779 347.139 112.27C345.936 111.668 344.132 111.252 342.05 111.159C340.246 111.113 338.21 111.206 337.562 111.391C336.868 111.622 335.712 112.085 335.018 112.501ZM518.553 100.426C520.172 100.38 522.902 100.703 524.568 101.074C526.187 101.49 529.009 102.554 530.767 103.526C532.525 104.451 535.116 106.394 536.55 107.782C538.17 109.401 539.743 111.622 540.807 113.797C541.732 115.693 542.75 118.331 543.027 119.672C543.305 121.014 543.536 123.235 543.536 124.669C543.536 126.057 543.305 128.278 543.027 129.619C542.75 130.961 541.778 133.552 540.946 135.403C539.881 137.623 538.447 139.705 536.689 141.463C535.209 142.944 533.08 144.702 531.97 145.396C530.813 146.044 528.639 147.015 527.112 147.57C525.585 148.079 522.532 148.635 520.404 148.773C517.581 148.958 515.546 148.82 513.232 148.264C511.428 147.848 508.745 146.83 507.218 146.044C505.691 145.211 503.147 143.314 501.62 141.787C499.769 139.937 498.242 137.855 497.132 135.541C496.161 133.598 495.189 130.915 494.911 129.527C494.68 128.093 494.449 125.826 494.495 124.438C494.495 123.003 494.819 120.505 495.189 118.886C495.605 117.22 496.577 114.629 497.41 113.103C498.196 111.576 500.139 109.078 501.666 107.551C503.193 106.024 505.691 104.081 507.218 103.294C508.745 102.462 511.243 101.49 512.77 101.12C514.297 100.75 516.887 100.426 518.553 100.426ZM512.677 112.501C511.937 112.871 510.457 114.213 509.346 115.462C508.143 116.85 507.125 118.608 506.709 120.042C506.339 121.292 506.015 123.374 506.015 124.669C506.015 125.918 506.339 128 506.709 129.296C507.125 130.684 508.143 132.488 509.346 133.876C510.457 135.079 512.215 136.513 513.232 137.022C514.25 137.531 516.332 138.086 517.859 138.179C519.802 138.364 521.375 138.179 523.18 137.577C524.984 136.976 526.372 136.097 528.037 134.385C529.703 132.719 530.582 131.331 531.184 129.527C531.6 128.093 531.97 125.918 531.97 124.669C531.97 123.374 531.646 121.245 531.276 119.904C530.813 118.331 529.888 116.758 528.593 115.323C527.529 114.167 525.817 112.779 524.799 112.27C523.596 111.668 521.792 111.252 519.71 111.159C517.905 111.113 515.87 111.206 515.222 111.391C514.528 111.622 513.371 112.085 512.677 112.501ZM579.161 100.518C581.937 100.611 583.232 100.935 585.638 102.045C587.581 103.017 589.339 104.312 590.589 105.746C591.699 106.996 592.948 108.939 593.364 110.095C594.058 111.853 594.151 114.629 594.429 148.033H582.862L582.723 132.858C582.631 117.729 582.631 117.729 581.474 115.416C580.826 114.167 579.762 112.733 579.161 112.27C578.513 111.807 577.033 111.298 575.922 111.159C574.673 110.974 573.054 111.159 571.99 111.483C570.972 111.807 569.399 112.779 568.52 113.565C567.594 114.352 566.345 116.156 565.744 117.544C564.587 119.996 564.587 120.181 564.356 148.033H552.79V101.305H564.356L564.587 105.978L566.207 104.729C567.086 104.081 568.659 103.109 569.676 102.554C570.694 102.045 572.452 101.351 573.609 100.981C574.719 100.657 577.218 100.426 579.161 100.518ZM276.353 101.259L288.382 128.879L300.411 101.259H306.055C309.155 101.259 311.746 101.397 311.746 101.536C311.746 101.629 307.443 111.715 302.169 123.836C296.941 136.004 292.407 146.414 292.129 146.969C291.667 147.941 291.25 148.033 288.382 148.033C285.467 148.033 285.051 147.941 284.588 146.969C284.311 146.414 279.776 136.004 274.548 123.836C269.274 111.715 265.018 101.629 265.018 101.536C265.018 101.397 267.562 101.259 276.353 101.259ZM395.857 101.305H407.516L407.608 116.202C407.701 129.434 407.84 131.331 408.58 132.997C409.042 134.015 409.736 135.218 410.199 135.726C410.615 136.189 411.818 136.976 412.836 137.438C413.854 137.901 415.52 138.271 416.537 138.317C417.555 138.317 419.082 138.086 420.007 137.762C420.886 137.485 422.182 136.698 422.922 136.05C423.662 135.356 424.588 134.2 425.004 133.459C425.652 132.21 425.791 130.082 425.883 101.305H437.588L437.403 116.665C437.264 128.046 437.033 132.719 436.57 134.616C436.2 136.004 435.275 138.271 434.535 139.613C433.795 141.001 432.221 142.944 431.111 144.008C429.954 145.026 427.965 146.368 426.716 146.923C425.42 147.524 423.246 148.218 421.858 148.45C420.424 148.727 418.157 148.958 416.769 148.958C415.335 148.958 412.975 148.727 411.448 148.45C409.921 148.172 407.516 147.339 406.128 146.645C404.693 145.951 402.658 144.378 401.594 143.222C400.53 142.019 399.188 140.214 398.633 139.104C398.078 138.04 397.337 136.004 396.967 134.616C396.458 132.719 396.227 128.046 396.042 116.665L395.857 101.305ZM474.138 101.305H485.704V148.033H474.138V101.305Z" fill="white"/>
</svg>
